<?xml version="1.0" encoding="utf-8"?>
<!-- Generator: Adobe Illustrator 24.0.3, SVG Export Plug-In . SVG Version: 6.00 Build 0)  -->
<svg version="1.1" id="icon-rain" xmlns="http://www.w3.org/2000/svg" xmlns:xlink="http://www.w3.org/1999/xlink" x="0px" y="0px"
	 width="25px" height="58px" viewBox="0 0 25 58" enable-background="new 0 0 25 58" xml:space="preserve">
<path fill="#FFFFFF" d="M3.4,36.1c-0.4,0-0.8-0.2-1.1-0.5l-1.4-1.5C0.3,33.5,0.4,32.5,1,32c0.6-0.6,1.6-0.5,2.1,0.1l1.4,1.5
	c0.6,0.6,0.5,1.6-0.1,2.1C4.1,36,3.8,36.1,3.4,36.1z"/>
<path fill="#FFFFFF" d="M19.2,49.9l-1.3-1.4c0-0.4-0.1-0.8-0.4-1.2L7.2,36c-0.6-0.6-1.5-0.7-2.1-0.1C4.5,36.5,4.4,37.4,5,38
	l10.2,11.2c0,0.4,0.1,0.8,0.4,1.2l1.4,1.5c0.3,0.3,0.7,0.5,1.1,0.5s0.7-0.1,1-0.4C19.7,51.5,19.7,50.5,19.2,49.9z"/>
<path fill="#FFFFFF" d="M3.4,25.4c-0.4,0-0.8-0.2-1.1-0.5l-1.4-1.5c-0.6-0.6-0.5-1.6,0.1-2.1c0.6-0.6,1.6-0.5,2.1,0.1l1.4,1.5
	C5.1,23.5,5,24.5,4.4,25C4.1,25.3,3.8,25.4,3.4,25.4z"/>
<path fill="#FFFFFF" d="M19.2,39.8l-1.3-1.4c0-0.4-0.1-0.8-0.4-1.2L7.2,25.9c-0.6-0.6-1.5-0.7-2.1-0.1S4.4,27.3,5,27.9l10.2,11.2
	c0,0.4,0.1,0.8,0.4,1.2l1.4,1.5c0.3,0.3,0.7,0.5,1.1,0.5s0.7-0.1,1-0.4C19.7,41.3,19.7,40.4,19.2,39.8z"/>
<path fill="#FFFFFF" d="M3.4,15.5c-0.4,0-0.8-0.2-1.1-0.5l-1.4-1.5c-0.6-0.6-0.5-1.6,0.1-2.1c0.6-0.6,1.6-0.5,2.1,0.1L4.5,13
	c0.6,0.6,0.5,1.6-0.1,2.1C4.1,15.4,3.8,15.5,3.4,15.5z"/>
<path fill="#FFFFFF" d="M19.2,29.6l-1.3-1.4c0-0.4-0.1-0.8-0.4-1.2L7.2,15.8c-0.6-0.6-1.5-0.7-2.1-0.1c-0.6,0.5-0.7,1.5-0.1,2.1
	L15.2,29c0,0.4,0.1,0.8,0.4,1.2l1.4,1.5c0.3,0.3,0.7,0.5,1.1,0.5s0.7-0.1,1-0.4C19.7,31.2,19.7,30.3,19.2,29.6z"/>
<path fill="#FFFFFF" d="M3.4,4.8C3,4.8,2.6,4.7,2.3,4.3L0.9,2.8C0.3,2.2,0.4,1.3,1,0.7s1.5-0.5,2.1,0.1l1.4,1.5
	C5.1,2.9,5,3.9,4.4,4.4C4.1,4.7,3.8,4.8,3.4,4.8z"/>
<path fill="#FFFFFF" d="M19.2,19.5l-1.3-1.4c0-0.4-0.1-0.8-0.4-1.2L7.2,5.6C6.6,5,5.7,5,5.1,5.5C4.5,6.1,4.4,7,5,7.7l10.2,11.1
	c0,0.4,0.1,0.8,0.4,1.2l1.4,1.5c0.3,0.3,0.7,0.5,1.1,0.5s0.7-0.1,1-0.4C19.7,21.1,19.7,20.1,19.2,19.5z"/>
<rect x="21.5" y="15" fill="#FFFFFF" width="3" height="42.8"/>
</svg>
