<?xml version="1.0" encoding="utf-8"?>
<!-- Generator: Adobe Illustrator 24.0.3, SVG Export Plug-In . SVG Version: 6.00 Build 0)  -->
<svg version="1.1" id="icon-pin" xmlns="http://www.w3.org/2000/svg" xmlns:xlink="http://www.w3.org/1999/xlink" x="0px" y="0px"
	 width="16px" height="21px" viewBox="0 0 16 21" enable-background="new 0 0 16 21" xml:space="preserve">
<path id="location-globe" fill-rule="evenodd" clip-rule="evenodd" fill="#018EDB" d="M6.1,8.2c0-1,0.8-1.9,1.9-1.9s1.9,0.8,1.9,1.9
	S9,10,8,10S6.1,9.2,6.1,8.2L6.1,8.2z M8,2.5c3.1,0,5.6,2.5,5.6,5.5c0,1.9-1.7,4.8-2.6,5.8l-3,3.7l-3-3.7C4.1,12.7,2.4,9.9,2.4,8
	C2.4,5,4.9,2.5,8,2.5L8,2.5z M7.3,20c0.2,0.2,0.4,0.4,0.7,0.4s0.6-0.1,0.7-0.4l3.7-4.7c1-1.2,3-4.6,3-7.2c0-4.1-3.4-7.5-7.5-7.5
	S0.5,4,0.5,8.2c0,3,2.7,6.7,3,7.1L7.3,20z"/>
</svg>
