<?xml version="1.0" encoding="utf-8"?>
<!-- Generator: Adobe Illustrator 23.0.4, SVG Export Plug-In . SVG Version: 6.00 Build 0)  -->
<svg version="1.1" id="icon-facebook" xmlns="http://www.w3.org/2000/svg" xmlns:xlink="http://www.w3.org/1999/xlink" x="0px"
	 y="0px" width="30px" height="30px" viewBox="0 0 30 30" enable-background="new 0 0 30 30" xml:space="preserve">
<path id="Path" fill="#FFFFFF" d="M28,0.2H2c-0.9,0-1.6,0.7-1.6,1.6v26.3c0,0.9,0.7,1.6,1.6,1.6h14V18.4h-3.8v-4.5H16v-3.3
	c0-3.8,2.3-5.9,5.7-5.9c1.1,0,2.3,0.1,3.4,0.2v4h-2.3c-1.8,0-2.2,0.9-2.2,2.2v2.9H25l-0.6,4.5h-3.8v11.5H28c0.9,0,1.6-0.7,1.6-1.6
	V1.8C29.6,0.9,28.9,0.2,28,0.2z"/>
</svg>
