<?xml version="1.0" encoding="utf-8"?>
<!-- Generator: Adobe Illustrator 24.0.3, SVG Export Plug-In . SVG Version: 6.00 Build 0)  -->
<svg version="1.1" id="icon-instagram" xmlns="http://www.w3.org/2000/svg" xmlns:xlink="http://www.w3.org/1999/xlink" x="0px"
	 y="0px" width="18px" height="18px" viewBox="0 0 18 18" enable-background="new 0 0 18 18" xml:space="preserve">
<path d="M9,2c2.3,0,2.5,0,3.4,0c0.8,0,1.3,0.2,1.6,0.3c0.4,0.2,0.7,0.3,1,0.6c0.3,0.3,0.5,0.6,0.6,1c0.1,0.3,0.3,0.7,0.3,1.6
	c0,0.9,0,1.2,0,3.4s0,2.5,0,3.4c0,0.8-0.2,1.3-0.3,1.6c-0.2,0.4-0.3,0.7-0.6,1c-0.3,0.3-0.6,0.5-1,0.6c-0.3,0.1-0.7,0.3-1.6,0.3
	c-0.9,0-1.2,0-3.4,0s-2.5,0-3.4,0c-0.8,0-1.3-0.2-1.6-0.3c-0.4-0.2-0.7-0.3-1-0.6c-0.3-0.3-0.5-0.6-0.6-1c-0.1-0.3-0.3-0.7-0.3-1.6
	c0-0.9,0-1.2,0-3.4s0-2.5,0-3.4c0-0.8,0.2-1.3,0.3-1.6C2.5,3.6,2.7,3.3,3,3c0.3-0.3,0.6-0.5,1-0.6c0.3-0.1,0.7-0.3,1.6-0.3
	C6.5,2,6.7,2,9,2 M9,0.5c-2.3,0-2.6,0-3.5,0.1C4.6,0.6,4,0.7,3.4,0.9c-0.6,0.2-1,0.5-1.5,1c-0.5,0.5-0.8,0.9-1,1.5
	C0.7,4,0.6,4.6,0.6,5.5c0,0.9-0.1,1.2-0.1,3.5c0,2.3,0,2.6,0.1,3.5c0,0.9,0.2,1.5,0.4,2.1c0.2,0.6,0.5,1,1,1.5
	c0.5,0.5,0.9,0.8,1.5,1c0.5,0.2,1.2,0.4,2.1,0.4c0.9,0,1.2,0.1,3.5,0.1s2.6,0,3.5-0.1c0.9,0,1.5-0.2,2.1-0.4c0.6-0.2,1-0.5,1.5-1
	c0.5-0.5,0.8-0.9,1-1.5c0.2-0.5,0.4-1.2,0.4-2.1c0-0.9,0.1-1.2,0.1-3.5s0-2.6-0.1-3.5c0-0.9-0.2-1.5-0.4-2.1c-0.2-0.6-0.5-1-1-1.5
	c-0.5-0.5-0.9-0.8-1.5-1c-0.5-0.2-1.2-0.4-2.1-0.4C11.6,0.5,11.3,0.5,9,0.5L9,0.5z"/>
<path d="M9,4.6c-2.4,0-4.4,2-4.4,4.4s2,4.4,4.4,4.4s4.4-2,4.4-4.4S11.4,4.6,9,4.6z M9,11.8c-1.6,0-2.8-1.3-2.8-2.8S7.4,6.2,9,6.2
	c1.6,0,2.8,1.3,2.8,2.8S10.6,11.8,9,11.8z"/>
<circle cx="13.5" cy="4.5" r="1"/>
</svg>
