<?xml version="1.0" encoding="utf-8"?>
<!-- Generator: Adobe Illustrator 24.0.3, SVG Export Plug-In . SVG Version: 6.00 Build 0)  -->
<svg version="1.1" id="icon-chat-bubbles" xmlns="http://www.w3.org/2000/svg" xmlns:xlink="http://www.w3.org/1999/xlink" x="0px"
	 y="0px" width="60px" height="60px" viewBox="0 0 60 60" enable-background="new 0 0 60 60" xml:space="preserve">
<path id="chat-bubbles" d="M5.9,39c0,0.6-0.4,1-1,1C2.2,40,0,37.8,0,35V5c0-2.8,2.2-5,4.9-5h41.5c2.7,0,4.9,2.2,4.9,5v4
	c0,0.6-0.4,1-1,1s-1-0.4-1-1V5c0-1.7-1.3-3-3-3H4.9C3.3,2,2,3.3,2,5v30c0,1.7,1.3,3,3,3C5.5,38,5.9,38.4,5.9,39L5.9,39z M19.5,30H29
	c0.5,0,1-0.3,1-0.7c0-0.4-0.4-0.7-1-0.7h-9.5c-0.5,0-1,0.3-1,0.7C18.6,29.7,19,30,19.5,30L19.5,30z M44.3,29.3c0,0.4,0.4,0.7,1,0.7
	H49c0.5,0,1-0.3,1-0.7c0-0.4-0.4-0.7-1-0.7h-3.8C44.7,28.6,44.3,28.9,44.3,29.3L44.3,29.3z M41.4,29.3c0-0.4-0.4-0.7-1-0.7h-8
	c-0.6,0-1,0.3-1,0.7c0,0.4,0.4,0.7,1,0.7h8C41,30,41.4,29.7,41.4,29.3L41.4,29.3z M47.6,21.4h-18c-0.6,0-1,0.3-1,0.7
	c0,0.4,0.4,0.7,1,0.7h18c0.6,0,1-0.3,1-0.7C48.6,21.7,48.1,21.4,47.6,21.4L47.6,21.4z M19.6,22.9H26c0.6,0,1.1-0.3,1.1-0.7
	c0-0.4-0.5-0.7-1.1-0.7h-6.4c-0.6,0-1.1,0.3-1.1,0.7C18.6,22.5,19.1,22.9,19.6,22.9L19.6,22.9z M19.6,41.4h16.5c0.6,0,1-0.3,1-0.7
	s-0.5-0.7-1-0.7H19.6c-0.6,0-1,0.3-1,0.7C18.6,41.1,19,41.4,19.6,41.4L19.6,41.4z M39.5,41.4H49c0.5,0,1-0.3,1-0.7S49.6,40,49,40
	h-9.5c-0.5,0-1,0.3-1,0.7C38.6,41.1,39,41.4,39.5,41.4L39.5,41.4z M36.7,35.7h9.5c0.5,0,1-0.3,1-0.7s-0.4-0.7-1-0.7h-9.5
	c-0.5,0-1,0.3-1,0.7S36.1,35.7,36.7,35.7L36.7,35.7z M19.6,35.7h13.7c0.5,0,1-0.3,1-0.7s-0.4-0.7-1-0.7H19.6c-0.5,0-1,0.3-1,0.7
	S19,35.7,19.6,35.7L19.6,35.7z M55.1,11.4H13.5c-2.7,0-4.9,2.3-4.9,5.1v30.4c0,2.8,2.2,5.1,4.9,5.1h24.7c0.5,0,1-0.5,1-1s-0.4-1-1-1
	H13.5c-1.6,0-3-1.4-3-3V16.5c0-1.7,1.3-3,3-3H55c1.6,0,3,1.4,3,3v30.4c0,1.7-1.3,3-3,3h-4c-0.5,0-1,0.5-1,1v5.7l-8.2-8.4
	c-0.4-0.4-1-0.4-1.4,0s-0.4,1,0,1.4l9.9,10.1c0.2,0.2,0.4,0.3,0.7,0.3c0.1,0,0.3,0,0.4-0.1c0.4-0.2,0.6-0.5,0.6-0.9v-7.1h3
	c2.7,0,4.9-2.3,4.9-5.1V16.5C60,13.7,57.8,11.4,55.1,11.4L55.1,11.4z"/>
</svg>
