<?xml version="1.0" encoding="utf-8"?>
<!-- Generator: Adobe Illustrator 24.0.3, SVG Export Plug-In . SVG Version: 6.00 Build 0)  -->
<svg version="1.1" id="icon-chat-dialog" xmlns="http://www.w3.org/2000/svg" xmlns:xlink="http://www.w3.org/1999/xlink" x="0px"
	 y="0px" width="60px" height="60px" viewBox="0 0 60 60" enable-background="new 0 0 60 60" xml:space="preserve">
<path id="chat-dialog" d="M60,5v17.9c0,2.7-2.2,5-5,5H31.2c-2.7,0-5-2.2-5-5V12c0-0.5,0.4-1,1-1c0.5,0,1,0.4,1,1v11c0,1.6,1.3,3,3,3
	H55c1.6,0,3-1.3,3-3V5c0-1.6-1.3-3-3-3H23.7l6.2,6.3c0.4,0.4,0.4,1,0,1.4s-1,0.4-1.4,0l-7.9-8c-0.3-0.3-0.4-0.7-0.2-1.1
	C20.5,0.2,20.9,0,21.3,0H55C57.8,0,60,2.2,60,5L60,5z M38.7,32.1H4.6c-2.5,0-4.6,2.2-4.6,5V55c0,2.7,2.1,5,4.6,5h24.1
	c2.7,0,5-2.3,5-5V44c0-0.5-0.4-1-1-1l0,0c-0.5,0-1,0.5-1,1v11c0,1.7-1.6,3-3,3H4.6C3.2,58,2,56.7,2,55V37.1c0-1.6,1.2-3,2.6-3h31.7
	l-6.2,6.3c-0.4,0.4-0.4,1,0,1.4s1,0.4,1.4,0l7.9-8c0.3-0.3,0.4-0.7,0.2-1.1C39.5,32.4,39.1,32.1,38.7,32.1L38.7,32.1z M22,43.1
	c0-0.5-0.5-0.8-1-0.8H8.6c-0.6,0-1,0.4-1,0.8c0,0.5,0.5,0.8,1,0.8h12.3C21.5,43.9,22,43.6,22,43.1L22,43.1z M8.6,48.2
	c-0.5,0-1,0.4-1,0.8c0,0.5,0.4,0.8,1,0.8h3.9c0.5,0,1-0.4,1-0.8c0-0.5-0.4-0.8-1-0.8H8.6L8.6,48.2z M17.1,49.9h8.1
	c0.6,0,1-0.4,1-0.8c0-0.5-0.5-0.8-1-0.8h-8.1c-0.6,0-1,0.4-1,0.8S16.5,49.9,17.1,49.9L17.1,49.9z M0,10.1v-2c0-0.7,0.4-1.4,1-1.8
	V6.1C1,2.7,3.6,0,6.9,0h3.9c3.3,0,5.9,2.7,5.9,6.1v0.3c0.6,0.4,1,1,1,1.8v2c0,0.8-0.4,1.4-1,1.8c-0.2,1.9-1,3.7-1.1,3.7
	c-0.9,1.8-2.2,4.6-6.8,4.6S3,17.5,2.1,15.7c0-0.1-0.9-1.8-1.1-3.7C0.4,11.6,0,10.9,0,10.1L0,10.1z M1.7,9.7c0.6,0,1,0.4,1,1
	c0,1.7,0.9,3.5,0.9,3.6c1.1,2.1,2,3.5,5.2,3.5s4.2-1.4,5.2-3.5c0,0,0.9-1.8,0.9-3.6c0-0.6,0.5-1,1-1v-2c-0.6,0-1-0.4-1-1v-1
	c0-2.2-1.8-4-4.1-4h-4c-2.3,0-4.1,1.8-4.1,4v1c0,0.6-0.5,1-1,1L1.7,9.7L1.7,9.7z M11.3,9.3h1.1c0.6,0,1.1-0.4,1.1-0.8
	c0-0.5-0.5-0.8-1.1-0.8h-1.1c-0.6,0-1.1,0.4-1.1,0.8C10.1,8.9,10.6,9.3,11.3,9.3L11.3,9.3z M6.2,9.3h1.1c0.6,0,1.1-0.4,1.1-0.8
	c0-0.5-0.5-0.8-1.1-0.8H6.2C5.6,7.6,5.1,8,5.1,8.5C5.1,8.9,5.6,9.3,6.2,9.3L6.2,9.3z M60,40.2v2c0,0.8-0.4,1.4-1,1.8
	c-0.2,1.9-1,3.7-1.1,3.7c-0.9,1.8-2.2,4.6-6.8,4.6s-5.9-2.8-6.8-4.6c0-0.1-0.9-1.8-1.1-3.7c-0.6-0.3-1-1-1-1.8v-2
	c0-0.7,0.4-1.4,1-1.8v-0.3c0-3.4,2.7-6.1,5.9-6.1H53c3.3,0,5.9,2.7,5.9,6.1v0.3C59.6,38.8,60,39.5,60,40.2L60,40.2z M58.3,39.8
	c-0.6,0-1-0.4-1-1v-1c0-2.2-1.8-4-4.1-4h-4.1c-2.3,0-4.1,1.8-4.1,4v1c0,0.6-0.5,1-1,1v2c0.6,0,1,0.4,1,1c0,1.7,0.9,3.5,0.9,3.6
	c1.1,2.1,2,3.5,5.2,3.5s4.2-1.4,5.2-3.5c0,0,0.9-1.8,0.9-3.6c0-0.6,0.5-1,1-1L58.3,39.8L58.3,39.8z M54.6,39.7h-1.1
	c-0.6,0-1.1,0.4-1.1,0.8c0,0.5,0.5,0.8,1.1,0.8h1.1c0.6,0,1.1-0.4,1.1-0.8C55.8,40.1,55.3,39.7,54.6,39.7L54.6,39.7z M49.6,39.7
	h-1.1c-0.6,0-1.1,0.4-1.1,0.8c0,0.5,0.5,0.8,1.1,0.8h1.1c0.6,0,1.1-0.4,1.1-0.8C50.7,40.1,50.2,39.7,49.6,39.7L49.6,39.7z
	 M34.8,17.7h3.9c0.5,0,1-0.4,1-0.8c0-0.5-0.4-0.8-1-0.8h-3.9c-0.5,0-1,0.4-1,0.8C33.8,17.4,34.2,17.7,34.8,17.7L34.8,17.7z
	 M42.3,16.9c0,0.5,0.5,0.8,1,0.8h8.1c0.6,0,1-0.4,1-0.8c0-0.5-0.5-0.8-1-0.8h-8.1C42.7,16.1,42.3,16.4,42.3,16.9L42.3,16.9z
	 M47.1,10.1H34.8c-0.6,0-1,0.4-1,0.8c0,0.5,0.5,0.8,1,0.8h12.3c0.6,0,1-0.4,1-0.8C48.2,10.5,47.7,10.1,47.1,10.1L47.1,10.1z"/>
</svg>
