<?xml version="1.0" encoding="utf-8"?>
<!-- Generator: Adobe Illustrator 23.0.6, SVG Export Plug-In . SVG Version: 6.00 Build 0)  -->
<svg version="1.1" id="icon-shear" xmlns="http://www.w3.org/2000/svg" xmlns:xlink="http://www.w3.org/1999/xlink" x="0px" y="0px"
	 width="49px" height="49px" viewBox="0 0 49 49" enable-background="new 0 0 49 49" xml:space="preserve">
<path fill="#5D9C43" d="M48.4,21.1L28.6,48.2c-0.2,0.3-0.5,0.3-0.8,0.3c-9.4-0.1-26.4,0-26.4,0s-0.4,0-0.8-0.3
	c-0.1-0.1-0.2-0.4-0.3-0.6C0.3,47.5,0.3,47,0.3,47v-3.4h1v2.2l20.1-25.9c0.2-0.2,0.5-0.4,0.8-0.4h25.4c0.4,0,0.7,0.2,0.9,0.5
	S48.6,20.8,48.4,21.1z M45.6,21.5h-23l-19.5,25h23.7v-2.8h1v2L45.6,21.5z"/>
<rect x="8.6" y="20" fill="#5D9C43" width="4" height="1"/>
<rect x="1.6" y="20" fill="#5D9C43" width="4" height="1"/>
<rect x="0.2" y="36.6" fill="#5D9C43" width="1" height="4"/>
<rect x="0.2" y="22.6" fill="#5D9C43" width="1" height="4"/>
<rect x="0.2" y="29.6" fill="#5D9C43" width="1" height="4"/>
<rect x="26.9" y="29.6" fill="#5D9C43" width="1" height="4"/>
<rect x="26.9" y="22.6" fill="#5D9C43" width="1" height="4"/>
<rect x="26.9" y="36.6" fill="#5D9C43" width="1" height="4"/>
<rect x="15.6" y="20" fill="#5D9C43" width="4" height="1"/>
<path fill="#5D9C43" d="M44.6,7.8c0,0,0-0.1,0-0.1c0,0,0-0.1,0-0.1c0,0,0-0.1,0-0.1s0-0.1,0-0.1c0,0,0-0.1,0-0.1c0,0,0-0.1,0-0.1
	c0-0.1,0-0.1-0.1-0.2c0,0,0-0.1,0-0.1c0,0,0,0,0,0c0,0,0,0-0.1-0.1c0,0-0.1-0.1-0.1-0.1c0,0,0,0-0.1-0.1l-9.1-6.3
	c-0.5-0.3-1.1-0.2-1.4,0.3c-0.3,0.5-0.2,1.1,0.3,1.4l6.5,4.5H1.3c-0.6,0-1,0.4-1,1c0,0.6,0.4,1,1,1h39.1l-6.5,4.5
	c-0.5,0.3-0.6,0.9-0.3,1.4c0.3,0.5,0.9,0.6,1.4,0.3l9.1-6.3c0,0,0,0,0.1-0.1c0,0,0.1-0.1,0.1-0.1c0,0,0,0,0.1-0.1c0,0,0,0,0,0
	c0,0,0-0.1,0-0.1C44.5,7.9,44.6,7.8,44.6,7.8z"/>
</svg>
