<?xml version="1.0" encoding="utf-8"?>
<!-- Generator: Adobe Illustrator 23.0.6, SVG Export Plug-In . SVG Version: 6.00 Build 0)  -->
<svg version="1.1" id="icon-clock" xmlns="http://www.w3.org/2000/svg" xmlns:xlink="http://www.w3.org/1999/xlink" x="0px" y="0px"
	 width="52px" height="50px" viewBox="0 0 52 50" enable-background="new 0 0 52 50" xml:space="preserve">
<polygon fill="#619B3B" points="37.8,34.6 27.9,24.8 27.9,7.5 26,7.5 26,25.6 26,25.6 36.4,36 "/>
<path id="Path" fill="#619B3B" d="M28,0.5c-6.5,0-12.4,2.8-16.7,7.3l1.5,1.7c3.9-4.1,9.2-6.7,15.2-6.7c11.7,0,21.3,10,21.3,22.2
	S39.8,47.2,28,47.2S6.7,37.3,6.7,25c0-0.6,0-1.2,0.1-1.8l3.5,2.7L8.2,12.6L0.5,23.4l4.2-0.7c-0.1,0.8-0.1,1.5-0.1,2.3
	c0,13.5,10.5,24.5,23.5,24.5s23.5-11,23.5-24.5S41,0.5,28,0.5z"/>
</svg>
