<?xml version="1.0" encoding="utf-8"?>
<!-- Generator: Adobe Illustrator 24.0.3, SVG Export Plug-In . SVG Version: 6.00 Build 0)  -->
<svg version="1.1" id="icon-twitter" xmlns="http://www.w3.org/2000/svg" xmlns:xlink="http://www.w3.org/1999/xlink" x="0px"
	 y="0px" width="34px" height="34px" viewBox="0 0 34 34" enable-background="new 0 0 34 34" xml:space="preserve">
<path id="Path" fill="#FFFFFF" d="M10.7,31c12.8,0,19.9-10.4,19.9-19.4c0-0.3,0-0.6,0-0.9c1.4-1,2.5-2.2,3.5-3.5
	c-1.3,0.5-2.6,0.9-4,1.1c1.4-0.8,2.5-2.2,3.1-3.8c-1.3,0.8-2.8,1.3-4.4,1.6C27.3,4.8,25.5,4,23.5,4c-3.9,0-7,3.1-7,6.8
	c0,0.5,0.1,1,0.2,1.6c-5.8-0.3-10.9-3-14.4-7.1c-0.6,1-0.9,2.2-0.9,3.4c0,2.4,1.2,4.5,3.1,5.7c-1.1,0-2.2-0.3-3.2-0.9
	c0,0,0,0.1,0,0.1c0,3.3,2.4,6.1,5.6,6.7c-0.6,0.2-1.2,0.2-1.8,0.2c-0.4,0-0.9,0-1.3-0.1c0.9,2.7,3.5,4.7,6.5,4.7
	c-2.4,1.8-5.4,2.9-8.7,2.9c-0.6,0-1.1,0-1.7-0.1C3.1,29.9,6.7,31,10.7,31"/>
</svg>
