<?xml version="1.0" encoding="utf-8"?>
<!-- Generator: Adobe Illustrator 24.0.3, SVG Export Plug-In . SVG Version: 6.00 Build 0)  -->
<svg version="1.1" id="icon-filters" xmlns="http://www.w3.org/2000/svg" xmlns:xlink="http://www.w3.org/1999/xlink" x="0px"
	 y="0px" width="25px" height="25px" viewBox="0 0 25 25" enable-background="new 0 0 25 25" xml:space="preserve">
<path fill="#58595B" d="M15.2,6.8c0-1.1-0.7-2.1-1.7-2.5V2.1c0-0.5-0.4-1-1-1s-1,0.4-1,1v2.1c-1,0.4-1.7,1.4-1.7,2.5
	c0,1.1,0.7,2.1,1.7,2.5v13.6c0,0.5,0.4,1,1,1s1-0.4,1-1V9.3C14.5,8.9,15.2,7.9,15.2,6.8z"/>
<path fill="#58595B" d="M5.9,12.1c0-1.1-0.7-2.1-1.7-2.5V2.1c0-0.5-0.4-1-1-1s-1,0.4-1,1v7.5c-1,0.4-1.7,1.4-1.7,2.5
	c0,1.1,0.7,2.1,1.7,2.5v8.2c0,0.5,0.4,1,1,1s1-0.4,1-1v-8.2C5.2,14.3,5.9,13.3,5.9,12.1z"/>
<path fill="#58595B" d="M24.5,17.5c0-1.1-0.7-2.1-1.7-2.5V2.1c0-0.5-0.4-1-1-1s-1,0.4-1,1V15c-1,0.4-1.7,1.4-1.7,2.5
	s0.7,2.1,1.7,2.5v2.9c0,0.5,0.4,1,1,1s1-0.4,1-1V20C23.8,19.6,24.5,18.6,24.5,17.5z"/>
</svg>
