<svg xmlns="http://www.w3.org/2000/svg" xmlns:xlink="http://www.w3.org/1999/xlink" style="display:none"><defs>
	<filter id="Adobe_OpacityMaskFilter" filterUnits="userSpaceOnUse" x="0" y="0" width="17.8" height="15.4">
		<fecolormatrix type="matrix" values="1 0 0 0 0  0 1 0 0 0  0 0 1 0 0  0 0 0 1 0"/>
	</filter>
<style>.a{fill:none;stroke:#000;stroke-linecap:round;stroke-width:2px;}</style></defs><symbol id="icon-add-queue" viewBox="0 0 19 19">
<g enable-background="new    ">
	<path d="M8.8,13.4v-3.2H5.5V8.8h3.3V5.6h1.4v3.2h3.3v1.4h-3.3v3.4H8.8V13.4z"/>
</g>
<path d="M19,19H0V0h19V19z M1.8,17.5h15.5v-16H1.8V17.5z"/>
</symbol><symbol id="icon-arrow-down" viewBox="0 0 32 60">
<path id="arrow-down" d="M12.5,47.7V0h6.2v47.6l7.9-8.5l4.5,4.2L15.5,60L0,43.4l0,0l4.5-4.2L12.5,47.7z"/>
</symbol><symbol id="icon-arrow-left" viewBox="0 0 24 15.4">
<polygon points="0.9,6.7 0,7.7 0.9,8.7 0.9,8.7 0.9,8.7 7.1,15.4 8.6,14 3.7,8.7 24,8.7 24,6.7 3.7,6.7 8.6,1.4 7.1,0 "/>
</symbol><symbol id="icon-arrow-right" viewBox="0 0 24 15.4">
<polygon points="23.1,8.7 24,7.7 23.1,6.7 23.1,6.7 23.1,6.7 16.9,0 15.4,1.4 20.3,6.7 0,6.7 0,8.7 20.3,8.7 
	15.4,14 16.9,15.4 23.1,8.7 23.1,8.7 "/>
</symbol><symbol id="icon-arrow-up" viewBox="0 0 32 60">
<path id="arrow-down" d="M18.6,12.3V60h-6.2V12.4l-7.9,8.5L0,16.7L15.6,0l15.5,16.6l0,0l-4.5,4.2L18.6,12.3z"/>
</symbol><symbol id="icon-calendar" viewBox="0 0 63 67">
<path id="Shape" d="M16.4,6.7h10.2V4.8c0-2.7,2.3-4.8,4.9-4.8s4.8,2.1,4.8,4.8v1.9h10.4V4.8c0-2.7,2.1-4.8,4.8-4.8
	c2.6,0,4.8,2.1,4.8,4.8v1.9c3.9,0,6.7,3.2,6.7,6.9v46.5c0,3.7-3,6.9-6.7,6.9H6.9C3,67,0,63.8,0,60.1V13.6c0-3.7,3-6.9,6.7-6.9V4.8
	C6.7,2.1,8.8,0,11.5,0s4.9,2.1,4.9,4.8V6.7z M26.6,9.7H16.4v1.8c0,2.7-2.3,4.9-4.9,4.9s-4.8-2.3-4.8-4.9V9.7C4.6,9.7,3,11.5,3,13.6
	V20h57v-6.4c0-2.1-1.6-3.9-3.7-3.9v1.8c0,2.7-2.1,4.9-4.8,4.9c-2.6,0-4.8-2.3-4.8-4.9V9.7H36.4v1.8c0,2.7-2.1,4.9-4.8,4.9
	s-4.9-2.3-4.9-4.9V9.7z M60,23H3v37.1c0,2.1,1.6,4.1,3.9,4.1h49.4c2.1,0,3.7-1.9,3.7-4.1V23z M51.5,3c-1.1,0-1.8,0.9-1.8,1.8v6.7
	c0,1.1,0.7,1.9,1.8,1.9s1.9-0.9,1.9-1.9V4.8C53.5,3.9,52.6,3,51.5,3z M31.6,3c-1.1,0-1.9,0.9-1.9,1.8v6.7c0,1.1,0.9,1.9,1.9,1.9
	c0.9,0,1.8-0.9,1.8-1.9V4.8C33.4,3.9,32.5,3,31.6,3z M11.5,3c-1.1,0-1.8,0.9-1.8,1.8v6.7c0,1.1,0.7,1.9,1.8,1.9
	c1.1,0,1.9-0.9,1.9-1.9V4.8C13.4,3.9,12.5,3,11.5,3z"/>
<path id="Path" d="M21.2,42.6c-0.5-0.5-0.5-1.4,0-2.1c0.5-0.5,1.6-0.5,2.1,0l5.1,5.1l11.3-11.3c0.5-0.5,1.6-0.5,2.1,0
	c0.5,0.7,0.5,1.6,0,2.1L29.5,48.8c-0.5,0.7-1.6,0.7-2.1,0L21.2,42.6z"/>
</symbol><symbol id="icon-chat-bubble" viewBox="0 0 18 16">
<g id="Clip-2">
</g>

<mask maskUnits="userSpaceOnUse" x="0" y="0" width="17.8" height="15.4" id="mask-2_1_">
	<g filter="url(#Adobe_OpacityMaskFilter)">
		<polygon id="path-1_1_" fill-rule="evenodd" clip-rule="evenodd" points="0,0 17.8,0 17.8,15.4 0,15.4 		"/>
	</g>
</mask>
<path id="Fill-1" mask="url(#mask-2_1_)" fill-rule="evenodd" clip-rule="evenodd" d="M14.5,0H3.3C1.5,0,0,1.5,0,3.3
	v6.3c0,1.5,1,2.8,2.5,3.2c-0.2,0.7-0.8,1.4-1.8,2.2c-0.7,0.5,2.7,1.2,5.9-2.1h8c1.8,0,3.3-1.5,3.3-3.3V3.3C17.8,1.5,16.4,0,14.5,0"/>
</symbol><symbol id="icon-chat-bubbles" viewBox="0 0 60 60">
<path id="chat-bubbles" d="M5.9,39c0,0.6-0.4,1-1,1C2.2,40,0,37.8,0,35V5c0-2.8,2.2-5,4.9-5h41.5c2.7,0,4.9,2.2,4.9,5v4
	c0,0.6-0.4,1-1,1s-1-0.4-1-1V5c0-1.7-1.3-3-3-3H4.9C3.3,2,2,3.3,2,5v30c0,1.7,1.3,3,3,3C5.5,38,5.9,38.4,5.9,39L5.9,39z M19.5,30H29
	c0.5,0,1-0.3,1-0.7c0-0.4-0.4-0.7-1-0.7h-9.5c-0.5,0-1,0.3-1,0.7C18.6,29.7,19,30,19.5,30L19.5,30z M44.3,29.3c0,0.4,0.4,0.7,1,0.7
	H49c0.5,0,1-0.3,1-0.7c0-0.4-0.4-0.7-1-0.7h-3.8C44.7,28.6,44.3,28.9,44.3,29.3L44.3,29.3z M41.4,29.3c0-0.4-0.4-0.7-1-0.7h-8
	c-0.6,0-1,0.3-1,0.7c0,0.4,0.4,0.7,1,0.7h8C41,30,41.4,29.7,41.4,29.3L41.4,29.3z M47.6,21.4h-18c-0.6,0-1,0.3-1,0.7
	c0,0.4,0.4,0.7,1,0.7h18c0.6,0,1-0.3,1-0.7C48.6,21.7,48.1,21.4,47.6,21.4L47.6,21.4z M19.6,22.9H26c0.6,0,1.1-0.3,1.1-0.7
	c0-0.4-0.5-0.7-1.1-0.7h-6.4c-0.6,0-1.1,0.3-1.1,0.7C18.6,22.5,19.1,22.9,19.6,22.9L19.6,22.9z M19.6,41.4h16.5c0.6,0,1-0.3,1-0.7
	s-0.5-0.7-1-0.7H19.6c-0.6,0-1,0.3-1,0.7C18.6,41.1,19,41.4,19.6,41.4L19.6,41.4z M39.5,41.4H49c0.5,0,1-0.3,1-0.7S49.6,40,49,40
	h-9.5c-0.5,0-1,0.3-1,0.7C38.6,41.1,39,41.4,39.5,41.4L39.5,41.4z M36.7,35.7h9.5c0.5,0,1-0.3,1-0.7s-0.4-0.7-1-0.7h-9.5
	c-0.5,0-1,0.3-1,0.7S36.1,35.7,36.7,35.7L36.7,35.7z M19.6,35.7h13.7c0.5,0,1-0.3,1-0.7s-0.4-0.7-1-0.7H19.6c-0.5,0-1,0.3-1,0.7
	S19,35.7,19.6,35.7L19.6,35.7z M55.1,11.4H13.5c-2.7,0-4.9,2.3-4.9,5.1v30.4c0,2.8,2.2,5.1,4.9,5.1h24.7c0.5,0,1-0.5,1-1s-0.4-1-1-1
	H13.5c-1.6,0-3-1.4-3-3V16.5c0-1.7,1.3-3,3-3H55c1.6,0,3,1.4,3,3v30.4c0,1.7-1.3,3-3,3h-4c-0.5,0-1,0.5-1,1v5.7l-8.2-8.4
	c-0.4-0.4-1-0.4-1.4,0s-0.4,1,0,1.4l9.9,10.1c0.2,0.2,0.4,0.3,0.7,0.3c0.1,0,0.3,0,0.4-0.1c0.4-0.2,0.6-0.5,0.6-0.9v-7.1h3
	c2.7,0,4.9-2.3,4.9-5.1V16.5C60,13.7,57.8,11.4,55.1,11.4L55.1,11.4z"/>
</symbol><symbol id="icon-chat-dialog" viewBox="0 0 60 60">
<path id="chat-dialog" d="M60,5v17.9c0,2.7-2.2,5-5,5H31.2c-2.7,0-5-2.2-5-5V12c0-0.5,0.4-1,1-1c0.5,0,1,0.4,1,1v11c0,1.6,1.3,3,3,3
	H55c1.6,0,3-1.3,3-3V5c0-1.6-1.3-3-3-3H23.7l6.2,6.3c0.4,0.4,0.4,1,0,1.4s-1,0.4-1.4,0l-7.9-8c-0.3-0.3-0.4-0.7-0.2-1.1
	C20.5,0.2,20.9,0,21.3,0H55C57.8,0,60,2.2,60,5L60,5z M38.7,32.1H4.6c-2.5,0-4.6,2.2-4.6,5V55c0,2.7,2.1,5,4.6,5h24.1
	c2.7,0,5-2.3,5-5V44c0-0.5-0.4-1-1-1l0,0c-0.5,0-1,0.5-1,1v11c0,1.7-1.6,3-3,3H4.6C3.2,58,2,56.7,2,55V37.1c0-1.6,1.2-3,2.6-3h31.7
	l-6.2,6.3c-0.4,0.4-0.4,1,0,1.4s1,0.4,1.4,0l7.9-8c0.3-0.3,0.4-0.7,0.2-1.1C39.5,32.4,39.1,32.1,38.7,32.1L38.7,32.1z M22,43.1
	c0-0.5-0.5-0.8-1-0.8H8.6c-0.6,0-1,0.4-1,0.8c0,0.5,0.5,0.8,1,0.8h12.3C21.5,43.9,22,43.6,22,43.1L22,43.1z M8.6,48.2
	c-0.5,0-1,0.4-1,0.8c0,0.5,0.4,0.8,1,0.8h3.9c0.5,0,1-0.4,1-0.8c0-0.5-0.4-0.8-1-0.8H8.6L8.6,48.2z M17.1,49.9h8.1
	c0.6,0,1-0.4,1-0.8c0-0.5-0.5-0.8-1-0.8h-8.1c-0.6,0-1,0.4-1,0.8S16.5,49.9,17.1,49.9L17.1,49.9z M0,10.1v-2c0-0.7,0.4-1.4,1-1.8
	V6.1C1,2.7,3.6,0,6.9,0h3.9c3.3,0,5.9,2.7,5.9,6.1v0.3c0.6,0.4,1,1,1,1.8v2c0,0.8-0.4,1.4-1,1.8c-0.2,1.9-1,3.7-1.1,3.7
	c-0.9,1.8-2.2,4.6-6.8,4.6S3,17.5,2.1,15.7c0-0.1-0.9-1.8-1.1-3.7C0.4,11.6,0,10.9,0,10.1L0,10.1z M1.7,9.7c0.6,0,1,0.4,1,1
	c0,1.7,0.9,3.5,0.9,3.6c1.1,2.1,2,3.5,5.2,3.5s4.2-1.4,5.2-3.5c0,0,0.9-1.8,0.9-3.6c0-0.6,0.5-1,1-1v-2c-0.6,0-1-0.4-1-1v-1
	c0-2.2-1.8-4-4.1-4h-4c-2.3,0-4.1,1.8-4.1,4v1c0,0.6-0.5,1-1,1L1.7,9.7L1.7,9.7z M11.3,9.3h1.1c0.6,0,1.1-0.4,1.1-0.8
	c0-0.5-0.5-0.8-1.1-0.8h-1.1c-0.6,0-1.1,0.4-1.1,0.8C10.1,8.9,10.6,9.3,11.3,9.3L11.3,9.3z M6.2,9.3h1.1c0.6,0,1.1-0.4,1.1-0.8
	c0-0.5-0.5-0.8-1.1-0.8H6.2C5.6,7.6,5.1,8,5.1,8.5C5.1,8.9,5.6,9.3,6.2,9.3L6.2,9.3z M60,40.2v2c0,0.8-0.4,1.4-1,1.8
	c-0.2,1.9-1,3.7-1.1,3.7c-0.9,1.8-2.2,4.6-6.8,4.6s-5.9-2.8-6.8-4.6c0-0.1-0.9-1.8-1.1-3.7c-0.6-0.3-1-1-1-1.8v-2
	c0-0.7,0.4-1.4,1-1.8v-0.3c0-3.4,2.7-6.1,5.9-6.1H53c3.3,0,5.9,2.7,5.9,6.1v0.3C59.6,38.8,60,39.5,60,40.2L60,40.2z M58.3,39.8
	c-0.6,0-1-0.4-1-1v-1c0-2.2-1.8-4-4.1-4h-4.1c-2.3,0-4.1,1.8-4.1,4v1c0,0.6-0.5,1-1,1v2c0.6,0,1,0.4,1,1c0,1.7,0.9,3.5,0.9,3.6
	c1.1,2.1,2,3.5,5.2,3.5s4.2-1.4,5.2-3.5c0,0,0.9-1.8,0.9-3.6c0-0.6,0.5-1,1-1L58.3,39.8L58.3,39.8z M54.6,39.7h-1.1
	c-0.6,0-1.1,0.4-1.1,0.8c0,0.5,0.5,0.8,1.1,0.8h1.1c0.6,0,1.1-0.4,1.1-0.8C55.8,40.1,55.3,39.7,54.6,39.7L54.6,39.7z M49.6,39.7
	h-1.1c-0.6,0-1.1,0.4-1.1,0.8c0,0.5,0.5,0.8,1.1,0.8h1.1c0.6,0,1.1-0.4,1.1-0.8C50.7,40.1,50.2,39.7,49.6,39.7L49.6,39.7z
	 M34.8,17.7h3.9c0.5,0,1-0.4,1-0.8c0-0.5-0.4-0.8-1-0.8h-3.9c-0.5,0-1,0.4-1,0.8C33.8,17.4,34.2,17.7,34.8,17.7L34.8,17.7z
	 M42.3,16.9c0,0.5,0.5,0.8,1,0.8h8.1c0.6,0,1-0.4,1-0.8c0-0.5-0.5-0.8-1-0.8h-8.1C42.7,16.1,42.3,16.4,42.3,16.9L42.3,16.9z
	 M47.1,10.1H34.8c-0.6,0-1,0.4-1,0.8c0,0.5,0.5,0.8,1,0.8h12.3c0.6,0,1-0.4,1-0.8C48.2,10.5,47.7,10.1,47.1,10.1L47.1,10.1z"/>
</symbol><symbol id="icon-check" viewBox="0 0 34 34">
<path d="M17,34C7.6,34,0,26.4,0,17S7.6,0,17,0s17,7.6,17,17S26.4,34,17,34z M17,4C9.8,4,4,9.8,4,17s5.8,13,13,13
	s13-5.8,13-13S24.2,4,17,4z"/>
<polygon points="15.5,25.2 9.4,19 11.6,16.9 15.2,20.5 23.3,9 25.7,10.7 "/>
</symbol><symbol id="icon-chevron-down" viewBox="0 0 28.3 20">
<polygon points="4,0.1 0,5.2 14.1,20 28.3,5 24.2,0 14.1,10.8 "/>
</symbol><symbol id="icon-chevron-left" viewBox="0 0 20 28.3">
<polygon points="19.8,4 14.8,0 0,14.1 15,28.3 20,24.3 9.2,14.1 "/>
</symbol><symbol id="icon-chevron-right" viewBox="0 0 20 28.3">
<polygon points="0.1,24.2 5.2,28.3 20,14.1 5,0 0,4 10.8,14.1 "/>
</symbol><symbol id="icon-chevron-up" viewBox="0 0 28.3 20">
<polygon points="24.2,19.8 28.3,14.8 14.1,0 0,15 4,20 14.1,9.2 "/>
</symbol><symbol id="icon-clipboard" viewBox="0 0 38 53.1">
<path d="M37,53.1H1c-0.6,0-1-0.4-1-1V4.8c0-0.6,0.4-1,1-1h7.6c0.6,0,1,0.4,1,1s-0.4,1-1,1H2V51h34V5.8h-6.7
	c-0.6,0-1-0.4-1-1s0.4-1,1-1H37c0.6,0,1,0.4,1,1V52C38,52.6,37.6,53.1,37,53.1z"/>
<polygon points="21.8,2.2 21.8,0 16.2,0 16.2,2.2 11.9,2.2 11.9,6.2 26.1,6.2 26.1,2.2 "/>
<g>
	<rect x="8.5" y="32.1" width="21.1" height="2"/>
	<rect x="8.5" y="41.1" width="21.1" height="2"/>
</g>
<g>
	<rect x="11.5" y="16.8" width="2" height="6.8"/>
	<rect x="20.1" y="18.1" width="2" height="5.5"/>
	<rect x="16.1" y="11.1" width="2" height="12.6"/>
	<rect x="24.5" y="13.3" width="2" height="10.3"/>
</g>
</symbol><symbol id="icon-clock-arrow" viewBox="0 0 52 50">
<polygon points="37.8,34.6 27.9,24.8 27.9,7.5 26,7.5 26,25.6 26,25.6 36.4,36 "/>
<path id="Path" d="M28,0.5c-6.5,0-12.4,2.8-16.7,7.3l1.5,1.7C16.7,5.4,22,2.8,28,2.8c11.7,0,21.3,10,21.3,22.2
	S39.8,47.2,28,47.2S6.7,37.3,6.7,25c0-0.6,0-1.2,0.1-1.8l3.5,2.7L8.2,12.6L0.5,23.4l4.2-0.7c-0.1,0.8-0.1,1.5-0.1,2.3
	c0,13.5,10.5,24.5,23.5,24.5s23.5-11,23.5-24.5S41,0.5,28,0.5z"/>
</symbol><symbol id="icon-clock" viewBox="0 0 52 50">
<polygon points="37.8,34.6 27.9,24.8 27.9,7.5 26,7.5 26,25.6 26,25.6 36.4,36 "/>
<path id="Path" d="M28,0.5c-6.5,0-12.4,2.8-16.7,7.3l1.5,1.7c3.9-4.1,9.2-6.7,15.2-6.7c11.7,0,21.3,10,21.3,22.2
	S39.8,47.2,28,47.2S6.7,37.3,6.7,25c0-0.6,0-1.2,0.1-1.8l3.5,2.7L8.2,12.6L0.5,23.4l4.2-0.7c-0.1,0.8-0.1,1.5-0.1,2.3
	c0,13.5,10.5,24.5,23.5,24.5s23.5-11,23.5-24.5S41,0.5,28,0.5z"/>
</symbol><symbol id="icon-compass" viewBox="0 0 16 16">
<polygon id="Page-1" points="0,8.5 7.5,8.5 7.5,16 16,0 "/>
</symbol><symbol id="icon-download" viewBox="0 0 22 22">
<path d="M12.9,0.5H2v21h18V7.2C20,1.4,18.2,0.5,12.9,0.5z M14.3,2.4c2.9,0,3.9,0.8,3.9,3.4h-3.9C14.3,5.8,14.3,2.8,14.3,2.4z
	 M18.2,19.6H3.8V2.4h9.1v4.7h5.3V19.6z"/>
<polygon points="11.6,7.9 10.4,7.9 10.4,15.5 7.3,12 6.5,13 11,17.9 15.5,12.9 14.7,12 11.6,15.5 "/>
</symbol><symbol id="icon-dropdown" viewBox="0 0 10 6">
<polygon points="5,6 0,0 10,0 "/>
</symbol><symbol id="icon-email" viewBox="0 0 48 48">
<path id="Shape" d="M47.8,16.7l-7.5-4.9V7H33l-8.9-5.9L15.2,7H7.9v4.8l-7.5,4.9H0.2v30.2h47.7L47.8,16.7L47.8,16.7z M46.1,45.1h-0.3
	L25.7,31.8l9.7-6.3L46,18.4h0.1V45.1L46.1,45.1z M6,19h1.9v1.2L6,19z M24.1,30.8L24.1,30.8L24.1,30.8L13.7,24H34L24.1,30.8z
	 M24,32.9L24,32.9L24,32.9L42,44.7H6L24,32.9z M40.1,20.2V19H42L40.1,20.2z M42,15.1h-1.9v-1.2L42,15.1z M24.1,3.2L29.8,7H18.3
	L24.1,3.2z M9.6,8.7h28.8v12.6l-4,2.4v-1.5H13.2v1.5l-3.6-2.4V8.7H9.6z M7.9,13.8V15H6L7.9,13.8z M22.5,31.8L2.2,45.1H2V18.4
	L22.5,31.8z"/>
<rect id="Rectangle" x="13.2" y="12.1" width="21.2" height="1.7"/>
<rect x="13.2" y="17.2" width="21.2" height="1.7"/>
</symbol><symbol id="icon-facebook" viewBox="0 0 30 30">
<path id="Path" d="M28,0.2H2c-0.9,0-1.6,0.7-1.6,1.6v26.3c0,0.9,0.7,1.6,1.6,1.6h14V18.4h-3.8v-4.5H16v-3.3
	c0-3.8,2.3-5.9,5.7-5.9c1.1,0,2.3,0.1,3.4,0.2v4h-2.3c-1.8,0-2.2,0.9-2.2,2.2v2.9H25l-0.6,4.5h-3.8v11.5H28c0.9,0,1.6-0.7,1.6-1.6
	V1.8C29.6,0.9,28.9,0.2,28,0.2z"/>
</symbol><symbol id="icon-filters-download" viewBox="0 0 33 28.417"><g transform="translate(-303 -404)"><line class="a" y2="26.417" transform="translate(306.453 405)"/><line class="a" y2="26.417" transform="translate(319.133 405)"/><line class="a" y2="26.417" transform="translate(331.965 405)"/><circle cx="3.5" cy="3.5" r="3.5" transform="translate(303 415)"/><circle cx="3.5" cy="3.5" r="3.5" transform="translate(316 411)"/><circle cx="3.5" cy="3.5" r="3.5" transform="translate(329 422)"/></g></symbol><symbol id="icon-filters" viewBox="0 0 25 25">
<path d="M15.2,6.8c0-1.1-0.7-2.1-1.7-2.5V2.1c0-0.5-0.4-1-1-1s-1,0.4-1,1v2.1c-1,0.4-1.7,1.4-1.7,2.5
	c0,1.1,0.7,2.1,1.7,2.5v13.6c0,0.5,0.4,1,1,1s1-0.4,1-1V9.3C14.5,8.9,15.2,7.9,15.2,6.8z"/>
<path d="M5.9,12.1c0-1.1-0.7-2.1-1.7-2.5V2.1c0-0.5-0.4-1-1-1s-1,0.4-1,1v7.5c-1,0.4-1.7,1.4-1.7,2.5
	c0,1.1,0.7,2.1,1.7,2.5v8.2c0,0.5,0.4,1,1,1s1-0.4,1-1v-8.2C5.2,14.3,5.9,13.3,5.9,12.1z"/>
<path d="M24.5,17.5c0-1.1-0.7-2.1-1.7-2.5V2.1c0-0.5-0.4-1-1-1s-1,0.4-1,1V15c-1,0.4-1.7,1.4-1.7,2.5
	s0.7,2.1,1.7,2.5v2.9c0,0.5,0.4,1,1,1s1-0.4,1-1V20C23.8,19.6,24.5,18.6,24.5,17.5z"/>
</symbol><symbol id="icon-hamburger" viewBox="0 0 24 24">
<rect y="10" width="24" height="4"/>
<rect y="20" width="24" height="4"/>
<rect width="24" height="4"/>
</symbol><symbol id="icon-house" viewBox="0 0 58 56">
<path d="M58,24.8L31,2l-2-1.7l0,0l0,0L0,24.8L2,27.1l3.8-3.2v31.9h46.5V23.9l3.8,3.2L58,24.8z M49.2,52.7H8.8v-31
	L29,4.2l20.2,17.5V52.7z"/>
<path d="M37,29.8h-6.5V23c0-0.8-0.7-1.5-1.5-1.5s-1.5,0.7-1.5,1.5v6.8H21c-0.8,0-1.5,0.7-1.5,1.5s0.7,1.5,1.5,1.5
	h6.5V39c0,0.8,0.7,1.5,1.5,1.5s1.5-0.7,1.5-1.5v-6.2H37c0.8,0,1.5-0.7,1.5-1.5S37.8,29.8,37,29.8z"/>
</symbol><symbol id="icon-in-queue" viewBox="0 0 12 12">
<path d="M4.5,11.5l-3.9-5C0.3,6.1,0.3,5.4,0.8,5.1c0.4-0.3,1.1-0.3,1.4,0.2l2.3,2.9l5.3-7.1c0.3-0.4,1-0.5,1.4-0.2s0.5,1,0.2,1.4
	L4.5,11.5z"/>
</symbol><symbol id="icon-instagram" viewBox="0 0 18 18">
<path d="M9,2c2.3,0,2.5,0,3.4,0c0.8,0,1.3,0.2,1.6,0.3c0.4,0.2,0.7,0.3,1,0.6c0.3,0.3,0.5,0.6,0.6,1c0.1,0.3,0.3,0.7,0.3,1.6
	c0,0.9,0,1.2,0,3.4s0,2.5,0,3.4c0,0.8-0.2,1.3-0.3,1.6c-0.2,0.4-0.3,0.7-0.6,1c-0.3,0.3-0.6,0.5-1,0.6c-0.3,0.1-0.7,0.3-1.6,0.3
	c-0.9,0-1.2,0-3.4,0s-2.5,0-3.4,0c-0.8,0-1.3-0.2-1.6-0.3c-0.4-0.2-0.7-0.3-1-0.6c-0.3-0.3-0.5-0.6-0.6-1c-0.1-0.3-0.3-0.7-0.3-1.6
	c0-0.9,0-1.2,0-3.4s0-2.5,0-3.4c0-0.8,0.2-1.3,0.3-1.6C2.5,3.6,2.7,3.3,3,3c0.3-0.3,0.6-0.5,1-0.6c0.3-0.1,0.7-0.3,1.6-0.3
	C6.5,2,6.7,2,9,2 M9,0.5c-2.3,0-2.6,0-3.5,0.1C4.6,0.6,4,0.7,3.4,0.9c-0.6,0.2-1,0.5-1.5,1c-0.5,0.5-0.8,0.9-1,1.5
	C0.7,4,0.6,4.6,0.6,5.5c0,0.9-0.1,1.2-0.1,3.5c0,2.3,0,2.6,0.1,3.5c0,0.9,0.2,1.5,0.4,2.1c0.2,0.6,0.5,1,1,1.5
	c0.5,0.5,0.9,0.8,1.5,1c0.5,0.2,1.2,0.4,2.1,0.4c0.9,0,1.2,0.1,3.5,0.1s2.6,0,3.5-0.1c0.9,0,1.5-0.2,2.1-0.4c0.6-0.2,1-0.5,1.5-1
	c0.5-0.5,0.8-0.9,1-1.5c0.2-0.5,0.4-1.2,0.4-2.1c0-0.9,0.1-1.2,0.1-3.5s0-2.6-0.1-3.5c0-0.9-0.2-1.5-0.4-2.1c-0.2-0.6-0.5-1-1-1.5
	c-0.5-0.5-0.9-0.8-1.5-1c-0.5-0.2-1.2-0.4-2.1-0.4C11.6,0.5,11.3,0.5,9,0.5L9,0.5z"/>
<path d="M9,4.6c-2.4,0-4.4,2-4.4,4.4s2,4.4,4.4,4.4s4.4-2,4.4-4.4S11.4,4.6,9,4.6z M9,11.8c-1.6,0-2.8-1.3-2.8-2.8S7.4,6.2,9,6.2
	c1.6,0,2.8,1.3,2.8,2.8S10.6,11.8,9,11.8z"/>
<circle cx="13.5" cy="4.5" r="1"/>
</symbol><symbol id="icon-linkedin" viewBox="0 0 28 29">
<path id="Shape" d="M21.9,0.2H6.1c-3.1,0-5.7,2.7-5.7,6v16.7c0,3.3,2.5,5.9,5.6,5.9h15.8c3.1,0,5.6-2.7,5.6-5.9V6.2
	C27.6,2.9,25,0.2,21.9,0.2z M9.5,22.8H6.1V9.7h3.4V22.8z M7.8,8.2c-1.1,0-2-0.9-2-2.1S6.7,4,7.8,4s2,0.9,2,2.1S8.9,8.2,7.8,8.2z
	 M23,22.8h-3.4v-6.7c0-4-4.5-3.7-4.5,0v6.7h-3.4V9.7h3.4v2.1c1.6-3.1,7.9-3.3,7.9,2.9V22.8z"/>
</symbol><symbol id="icon-map" viewBox="0 0 455.8 296.2">
<g>
	<path d="M452.9,27.7l-5.2-4l-4.3-15.6l-1.8-1.8l-3-0.8l-1.6,0.1l-3,1.2L432,6.4l-2.6,1l-3.8,5.2l-0.5,1.9l1.4,9.3l-1.8,9.7
		l-2.7,0.4l-2.1,2.5v2.8l-7.9,3.1l-17,4.5l-1.5,1.1l-4.5,6.9h-0.9l-2.2,3.6l2.1,4.1l-4.2,3.2l-2.8,1.6l-6.5-1.3l-1.7,0.3l-5.2,3
		l-1.3,2.2v3.7l-3.9,5.9l-4.6,4.6l-4.7,1.3l-1.8,2l-0.4,2.4l-7.2,2.6l-1-0.9l-2.8-0.8l4.5-13.9l-0.2-2.1l-4.5-7.4l-3.4-0.9l-0.5,0.3
		l0.4-0.9v-1.9l-3-7.4l-1.8-1.5l-7.4-1.5l-0.6,0.1l2.7-1.4l0.8-3.7l-2.3-3l-1.3-0.9l-8.1-2.2h-1.2l-8.9,2.2l-1.6,1.2l-1.3,2.2
		l-5.3-1.4v-1.1l-3.3-2.4l-3.4,1.2v-2.5l-3.9-2.1L275,49v-0.3l-3.4-2.8l-4.9,1.9l10.5-10.5l-1.8-4.3h-5.7l-0.8-0.8l-2.2-0.7
		l-7.6,1.3l-3.6-3.6l-1.3-0.7l-9.7-2l-1.7-5.3l-4.5-0.5l-1.6,2.6l-14.2,1.4l-47.8-1.5L90.4,10.9L89.5,10h-6.3L47.8,1.2l-3.1,2.3
		l-0.6,10.8L39,19l-0.8-1.4l3.3-7l-1.4-3.4l-9.6-3.7l-3.4,1.9l-3.8,21.5l0.7,2.2l0.7,0.7l-1.2,1L7.2,64.9l-1.6,5.6L1.9,86.9v0.9
		l0.7,5.1l-0.7,12.4l0.3,1.4l2.7,4.9l1.4,5.6l3.2,1.8l0.4-0.1v0.1l-1.2,0.9l-1,2v3.7l0.5,1.5l2.7,3.8L9,132.8l-0.3,2.6l9.6,20.8
		l1.9,1.4l4.2,0.6l3.2,4.4l1.1,0.9l9.2,3.6l5.7,4.5l3.5,14.1l2.3,1.9l21,0.6l1.1,0.6l-1,1.6l0.8,3.5l26,15.7l0.9,0.3l14.6,2.6h8.5
		l2-1l1.5-2l17.5,0.7l5.9,9.9l1.5,1.1l6.4,1.7l0.7,8.6l1,1.8l11.1,8.2l3.7-0.8l4.5-7.7h9.1l16.6,25.1v7.3l0.3,1.2l3.7,6.6l1.7,1.2
		l19.3,3.8l3.2-3.2l-2.8-6.9l0.6-15.5l11.2-9.9l6.6-0.6l2.1-1.6l1.5-4l1.7,0.3l1.4-0.2l4.7-2l15.8,0.7l2.6-2.5v-0.2l1.8,1.5l2.2,0.5
		l1.3-0.3l0.1,0.2v0.8l2.5,2.5h9.6l2.2-1.4l0.4-0.8l3.8,1.9l3-3.9l-5.2-5.9l-0.4-0.4l-1.8-1.4l1.3-0.2l5.5-1.5l7.1-0.8l1.6-0.9
		l0.1-0.1v0.3l4.1,1.6l4.2-3.6l5.4,1.8l2.2-0.3l3.5-2.4l3.5,1l4.7,4.7l3.2,0.3l9-6.4l5.2,3.5l5.4,4l1.7,4.7l-0.6,5.4l1.8,2.7
		l1.1,0.3v2.6l0.6,1.6l3,3.7l1.9,0.9h1l2.5,10l2,1.9l3.9,0.6l2.4,4.8l3,1.2l4.5-1.5l1.5-1.4l3.7-8.8l0.2-1.3l-1.5-11.2l-0.4-1
		l-3.7-5.9L373,207.6l3.5-15.5l0.5-2.2l3.8-1.1l1.5-1.1l10.6-17.8l7.3-2.7l1.4-1.4l3.5-8l5.9-3.4l-0.4-3.4h2.1l2-1.1l3.7-5.3l-2-3.9
		h-1.9l0.5-2.7l-2.9-5.1l-0.7-2l-1.6-1.1l0.2-0.2l-1.1-3.8l3.3,0.9l3.2-2.4v-10.4l-0.3-1.1l-0.9-1.8l3.3-1.6l3.8-12.6l-0.1-1.7
		l-1.9-4.3l1.9-5l1.1-3.4l9.9-3.4l1.1-0.7l4.5-5.1h3.4l1.8-0.7l1.5-1.5l0.7-1.8v-3.7l-4.3-1.8l-1.1,1.1h-0.1l-2.8-3.4l-0.7-6.4
		l0.7-6l7.2-5.3l0.8-0.9l1.1-2.3l6.6-3.3l1.4-2.2v-5.9L452.9,27.7z M425.1,41v-2.4l1.1-0.2l5.3,15.9l-0.1,1.1V56l0.6,5.8l-9.4,2.3
		V43.7l1-0.4L425.1,41z M420.6,44.4v20h-2l-2.1-5.4l-0.3-0.4l-2.6-1.9l-0.5-9.5l0.5-0.1L420.6,44.4z M371.5,77.3l0.4-1.4v-3.1
		L375,71l6.5,1.3l1.8-0.3l3.7-2.2l6.1-4.6l0.7-3.1l-1.6-3.1l0.7-0.4l4.7-7.3l13.6-3.6l0.5,9.5l0.4,0.7l2.8,2l2.1,5.6V72l0,0.2l0,0
		l1.4,7.7l-0.2,0.2l-1.1,3.4l-7.8-1.3l0,0h-1h-2.7v-2.8l-0.6-0.9l-3-1.5l-0.4-0.1h-2.2l-32.2,6.8L371.5,77.3z M410.5,116.4h-1.4
		l-0.8-5.7l2.2,4.4V116.4z M407.2,117.3L407,117l-4.7,1.5l0.3,2.5l-8-2.7l1.1-2.7l-0.3-1.2l-6.6-4.5l-0.5,0.1l-0.9-1l-8.9,0.8
		l-0.7,0.3l-4.6,5.2l-0.9-3.8l31.2-8.5l2.4,2.5l0.3,0.3l-0.6,0.6L407.2,117.3z M357.5,145.6l-1.9,4.4h-2.3l-0.6,0.2l-11.1,8.8
		l-0.3,0.3l-2,3.9l-9.1,1.4l0,0l-13.2,1.9l-13.4,1.9l-16.7,2.8v-2.5l0,0l1.4-7.5l4.3-5.7l50.6-6.6l0.1,0l0,0l5.5-1.3L357.5,145.6z
		 M349.5,168.9l4,0.6l1.3,3.3l3.9,4.8l7.8,7.8v1.9l0.6,0.9l2.4,1.2v1.6l0.5,0.8l1.4,0.9l-3,13.6h-3.1h0l-1,0.8l-0.7,4.4l-23.1-0.7
		l-0.9-0.9l-1.4-8.3l2.9-4.9v-0.9v0l-3-5.9l0-0.1l-6.2-23.3l8.5-1.3l8.9-1.9l-0.5,4.6L349.5,168.9z M254.3,197.3v-4.1l-1-1h-2.2
		l-0.4-1.4l0.7-10.2l-0.7-12.7l-1.3-8l33-3.5l1.2,1.6l-1.2,0.8l0,0.1l0,0l0.3,1.8l3.5,0.6l-1.3,7v0.1v3.6l-2.9,4.3l-3,5.2l-2.2,5.4
		l-0.1,0.5l0,0.1l0,0l0.7,5.7l-0.5,2.1l-21.5,1.9L254.3,197.3z M71.9,67.5l1.9-1.3l0.3-1.2l-1.9-4.7l7.6-8.3l0.2-1.1l-2.8-7.1
		l5.4-28.9h0.2h4.6l-1,5.8l-0.2,0l0.1,0.7v0.3l1.5,9.6l0.2,0.4l7.1,9.3L93,48.6l-1.4,2.2l-0.1,0.8l0.8,2.2l1.1,0.7l2.2-0.5l4.9,12.5
		l1.1,0.6l3.5-0.7l7.3,0.7l0.5-0.1l-1.4,12l-1.4,12l-21-3.6l0,0l0,0L89,87.3l-20.5-3.5L71.9,67.5L71.9,67.5z M222.7,30l0.7,1.4V35
		v0.3l2.2,6.5v4.3l0.8,3.9v7.7h-53.5l2-29.3l47.6,1.7L222.7,30z M306.7,78.3l4.1,7.5l-1.3,9.3l-2.2,1.7l-0.5,0.5l-1.2,1.6l-3.3-1
		l-1.4-0.7v-7.3l-1.5-11l3.6-12.1l-4.2-2.1l5.5-5.5l11.3-4.8l4.4,1.3l0.6-0.1l-4.6,2.1l-1.3,1.4l-0.9,2.4l-3.3,0.1l-3,4.5l-0.4,1.2
		l-0.8,9.6L306.7,78.3z M339.6,127.2l0.7,0.1l0,0l0.1,0l5.5-1.4l1.5,1l1.4,4.8l0.6,1.4l0.2,0.4l0.7,1.9l0.6,0.6l0,0l0.1,0.1l2.8,1
		l-11,9.8l-48.4,6.3l0.7-1l0.1-1l-1.1-2.7l4.1-1.1l0-0.1l0.1,0l0.4-1.7l2.8-2.2l0,0l0.1-0.1l0.4-0.8v-2.8l6.1-1.3l2.7,1.3l0.7,0.1
		l0,0l0.1,0l5.3-1.5l0.6-0.6l0,0l1.4-3.3h3.7h0.1l0.9-0.5l2.7-4.8l5-2.2l0.6-0.9v-1l2-1.5L339.6,127.2z M364.2,113.2l6.4-1.3
		l1.3,5.7l1.7,0.4l5.6-6.3l3.2-0.3l-0.7,0.2l-0.1,0.1l0,0l-4.9,6.1h-0.2l-0.9,0.5l0,0.1l-0.1,0l-3.7,5.9l-1.6,3.8l-1.3,3v0.1
		l-0.1,0.7l0.5,1.3l-9.8,4.6l-3.2-2l-0.2-0.1l0,0l-4.1-1.4l0-0.1l-0.4-1.8l-0.7-1.4l-1.3-4.4l2.3-1.1l0.4-0.3l5.1-7.3l3.7-3.6
		l0.3-0.7v-6.4l1.5,5.2l1.2,0.7L364.2,113.2L364.2,113.2z M382.8,111.3l3.5-0.3l-0.3,1.4L382.8,111.3z M172.6,59.6h54l0.5,2l0,0
		l-0.7,3.6l0.7,1.2l1.5,0.4v17.2l0,0l0,0.2l-0.1,0.1l0.7,3.8l-1.9,1.9l-0.1,1.2l-5.6-1.4l0,0h-3l-5-2.2l-0.4-0.1l-42-1.5V67.1
		L172.6,59.6z M270.5,84.2L270.5,84.2l-1.1,2.2v1l2.3,3.8l0.9,0.5h1.4l0.6,1.6l1.4,3l1.3,2l-2.6,6l-2.9,3.6l-2.4,5.5l-0.5,3
		l-0.7-0.9l0,0l-0.1-0.1l-0.9-0.4l-28.6,2.9v-1.9v-0.1l-0.1-0.4l-1.4-3.5v-3.6l-0.1-0.4l-3-6.5l-2.2-7.3l-0.1-0.2l0,0l-0.2-0.2
		l-0.1-0.1l0,0l-2-2.6l1.7-1.7l0.3-0.9l-0.6-3.4l37.7-2.1L270.5,84.2L270.5,84.2z M308.6,103.3l2-2.7l2.7-2.1l0-0.1l11.8-1.5l4.3,28
		h0v0.6l-4.7,2l-0.5,0.4l-2.6,4.6h-3.9l-0.9,0.6l-0.9,2.2l-0.5,1.1l-4.3,1.3l-2.7-1.3l-0.6-0.1l-4.9,1l3.7-5.3l0,0l0.1-1l-2.1-5.2
		l-2.6-23l3.8,1.1L308.6,103.3z M297.4,101l2.7,1.3l2.7,24l0,0.1l2.1,5.1l-4.9,6.9l-0.2,0.6v3.2l-3.3,2.6l0,0l-0.1,0.1l-0.1,0.9
		l-2.9,0.8l-1.2,0.3l-0.6,0.6l-0.4,0.9h-1.6l-0.9-1.9l1.3-3.4l-0.4-1.2l-0.2-0.1l0-0.1l-2.8-1.6l-0.6-0.4l-4-3.4l0.6-4.7l-1-1.1
		h-0.1l-0.1-0.1h-3.8l-6.2-8.2l-0.7-3.6l-0.1-0.1l0.7-4.6l2.2-5.1l2.9-3.6l3-6.8l-0.1-0.9l-1.4-2.3l-0.8-1.7l18.9-3.2v8.3L297.4,101
		z M183.2,150.6l0.1-4.4l0.7-22.6l45.2-0.2l12.2,0l1.5,1.3l-1.2,0.8l-0.2,1.5l4.9,5v18.6H183.2z M183,109.7l-13.8-0.7l2-20.9l42,1.5
		l5,2.2l0.4,0.1h2.9l5.7,1.4l3.2,1.9l2.1,7l3,6.5v3.6l0.1,0.4l1.4,3.5v2.8l0.3,0.7l0.1,0.1l0,0l0.3,0.3l1.7,1.5l-55.2,0.2v-10.9
		L183,109.7z M285.9,157.6L285.9,157.6l-2.3-3l-0.9-0.4l-33.6,3.6l-0.7-6.2l-0.1-0.1v-19.8l-0.3-0.7l0,0l-0.1-0.2l-4.1-4.2l1.2-0.8
		l0.1-1.6L245,124l0-0.1l-4.9-4.3l26.6-2.6l2,2.5l0.5,2.5l0.1,0.8l0.2,0.4l6.6,8.9l0.8,0.4h3.4l-0.1,0.5l-0.5,3.6l0.4,0.9l4.5,3.8
		l3.1,1.8l-1.2,3v0.8l1.5,3l0.9,0.6h3l0.5-0.3l0.6,1.3l-1.9,2.5l-4.1,5.5l-1.3-0.2l0.3-1.5L285.9,157.6z M89.7,89.6l20.2,3.4
		l-1.4,10.1l0.8,1.1l15.4,2.8l-6.4,38.2L81,139.6L89.7,89.6z M169.3,67.8v19l-2.1,22l-41.1-3.6l-15.5-2.8l1.4-10.2l3-26l1.2-3.6
		L169.3,67.8z M39.2,79.2l27.9,6.5l20.6,3.5l-8.7,51l0,0l-0.1,0.1l-0.6,10.2h-2.1h0l-0.9,0.5l-3.8,6.8L32,110.4L39.2,79.2z
		 M120.3,145.5l4.3-25.8l2.1-12.3L168,111l13.9,0.7v10.9l-0.7,27.9l-7-0.6L120.3,145.5z M227.2,188.8l-0.8,1.7l-4.2-4.9l-0.9-0.3
		l-3.7,0.7l-0.4-0.8l-0.7-0.6l-10.2-2.3l-5.8-3.5l-1.1-1.1l0.8-19.6l-0.9-1l-24.3-2.9V152l6.9,0.6l0.1,0l0,0h64.3l0.7,6.5l0,0l0,0.1
		l1.5,8.8l0.7,12.5l-0.7,10.3v0.2l-3.7-1.8l-0.5-0.1H240l-0.4,0.1l-4.9,2.5l-0.5-1.8l-0.8-0.7l-5.2-0.8L227.2,188.8z M359.1,143.1
		L359.1,143.1L359.1,143.1L359.1,143.1l-12.5,2.9l9.1-8.1l3,1.8l1,0.1l0,0h0l0,0l11.3-5.2l0.5-1.2l-0.6-1.8l2.8-6.3l3.4-5.5h0.1
		l0.8-0.4l4.9-6l3.8,1.3l1.3-0.8l0.1-0.4l0.7-1.4l5.1,3.4l-1.2,2.9l0.6,1.3l9.8,3.4l0.1,0.5l1.1,3.9l-3.3-0.7l-1.7,4.6l4.2,2.4
		L359.1,143.1z M361.6,89.6l3.2-3.2l34.7-7.4h1.9l2.2,1.1v3.2l1,1h0h1.7l-2.5,3.6l-0.1,1.1l2.2,3.8l0.5,0.4l2.5,1l-2.9,3.5l-2.7,3.4
		l-32.2,8.8l-6.5,1.3l-3.4-11.7l0,0l-1-9l0.5-0.1L361.6,89.6z M341,97.3l0.2,0.5l3.1,1.3l10.4-3.7l1.6-1.9l0.4-2.3l1.4-0.4l1,8.8
		v13.5l-3.5,3.4l-5.2,7.3l-2.2,1.1l-1.6-1.1l-0.8-0.1l-5.6,1.4l-6.3-3.5l-1.1,0.1l-1.7,1.2l-4-26.5l8.7-2.5l1.1,2.1L341,97.3z
		 M324.5,59.9l5.4,1.1l2.1,5.3l-0.9,2.3l-1.1,1.1l-0.7,1.8v2.3l3.7,2.2l4.6-2.6l2.7,4.4l-4.7,14.4l-9.8,2.8l0,0l-11.3,1.4l1.8-10.4
		l-0.3-1.5l-4.1-7.5l0.7-8.2l0.7-1l0.1,0.1l4.4-0.6l1.9-5L324.5,59.9z M269.6,52l2.1,2.5h3l1.4-0.4l9.4-6.3V49l3.3,2.4l3.7-1.3
		l1.6,2l8.9,2.3l2.8-1.2l1.7-2.9l7.2-1.8l6.6,1.8l-0.9,0.5l-4.2-1.2l-1.7,0.2L302,55l-0.8,0.5l-6.7,6.6l-0.7,1.8v8.2l2.4,0.8
		l-1.5,5.2l-0.1,1l1.3,9.5l-19.5,3.2l-0.6-1.3l-0.9-0.7h-1.6l-1.8-2.8l1.3-2.6l-0.3-1.2l-2.7-2l-1.4-3.6l0,0l-0.5-0.5l-4.3-2.1
		l-6.1-6.2l1.4-6.9l-0.4-1l-1.2-0.8l2.8-2.9l0.3-0.7v-5l0.1,0.5l3.7,1.5h1.9L269.6,52z M238.3,28.5l1.2-0.8l0.7,2l1.9,1.7l10.4,2.1
		l4,4l2.2,0.7l7.6-1.3l0.6,0.6l1.8,0.7h0.7l-9.8,9.8l0.1,0.5l-0.9,0.5l-0.5,0.9v6.2l-3.4,3.4l0.1,1.5l1.7,1.2l-1.4,6.7l0.3,0.9
		l6.6,6.7l0.3,0.2l4.1,2l0,0l0.9,2.2l-36.8,2V66.2l-0.7-1l0,0l-0.1-0.1l-1.3-0.4l0.5-2.8v-0.4l0,0v-0.1l-0.7-2.9v-8.7l-0.8-3.9v-4.4
		l-2.2-6.8v-3.6l-0.1-0.5l-0.5-0.9L238.3,28.5z M172.9,28.1l-2.1,30.5l0,0l-1.3,7.2l-53.9-5.2l0,0l-0.1,0l-1,0.7l-1.1,3.3l-0.8-0.1
		l0,0h0l-0.4,0.5l-7-0.7L102,65l-4.9-12.6L96,51.8l-2.2,0.5l-0.3-0.9l1.2-1.9l2.5-8.3L97,40.3l-7.3-9.5l-1.4-9.2l1-5.8L172.9,28.1z
		 M31.5,9.2l4.4,1.7l-2.7,5.9l0.1,2.3l3,5.2l3.8,0.6l8.2-7.4l0.8-1.7l0.5-8.8l31.1,7.8l-5.2,28.2l-5.9-0.9l-11.7-1.9h-0.2l-0.4,0
		l-0.1,0h-0.3l-13,0.7l-3.5-2.1L40,38.4l-6.5-0.5l0.6-1.5l-0.1-2L31.7,30l-0.5-0.7l-2.9-2.9L31.5,9.2z M27,34.8l0.6,1.1l-0.5,2.9
		l2.5,3h0.7l2.3-1.6l0.1-0.2l7,0.5l3.5,2.1l0.5,0.1l0.1,0l0,0l1.6-0.1L57,41.9l15.7,2.4l2.7,0.4l2.5,6.3l-7.6,8.3l-0.2,1.1L72,65
		l-1.6,1.1L70,66.7l-3.5,16.7l-27.9-6.5L38.5,77l-27.6-6.6l1-3.4L27,34.8z M48.2,169.5l-0.9-1.4l-6.6-5.3l-0.7-0.4l-8.9-3.4
		l-3.4-4.6l-1.6-1l-3.9-0.6l-8.4-18.2l2-2.5l0.1-3l-3.3-4.6V123l2-1.5l0.6-3.3l-2.2-3.7l-2.6-1L9.5,110l-0.2-0.6l-2.5-4.6L7.6,93
		l-0.7-5.3l3.5-15.4l26.8,6.5L30,110.4l0,0.1l0,0l0.2,0.8l40.6,48.8v5.6l0.3,0.7l2.3,2.3l-2.3,2.3l-0.3,0.4l-3,9.7l0.1,0.7l0.3,0.7
		l0.3,0.7l-17-0.5L48.2,169.5z M75.8,190.8l1-1.5l-0.8-3.5l-3.8-2.3l-1.3-0.4h-0.1l-0.2,0l-0.7-1.9l2.8-9.2l2.8-2.8v-1.4l-2.7-2.7
		V160l4.1-7.4h2.4l1-0.9l0.2-3.4l0.4-6.6l18.6,2.8l18.6,2.8l-6.3,59.5l-12.5-1.8L75.8,190.8z M123.6,204l-2.1,1l-1.5,2h-6.3
		l6.3-59.5l21.8,1.8l31.2,2.5v3.4l-2.7,48.9l-0.2,2.9l-25.2-1.3l-1.4-0.9L123.6,204z M251.5,231.4l-3.1-0.6l-2.8,1.6l-1.7,4.5
		l-5.9,0.6l-1.4,0.6l-12.6,11.2l-0.8,1.8l-0.7,17.1l0.2,1l1.3,3.2l-13.8-2.7l-3-5v-7.5l-0.4-1.4l-17.8-26.8l-2.1-1.1h-11.9l-2.2,1.2
		l-3.8,6.5l-7.9-5.9l-0.7-9.3l-1.8-2.2l-7.1-1.9l-5.1-8.5l24.3,1.3l1.1-0.9l2.9-51.7l23.2,2.7l0.1,0l-0.8,19.1l0.3,0.7l1.5,1.5
		l6.1,3.9l0.3,0.1l9.9,2.2l0.5,1l1.1,0.6l3.9-0.7l4.8,5.6l1.7-0.3l1.2-2.3l3.8,0.6l0.6,2.4l1.4,0.6l5.9-2.9h4l5.6,2.9l0.5,0.1l0,0h0
		h2v4.2l0,0l0,0.2l0,0l2.3,9.7l2.3,4.5l1.4,5.7l-2.7,11.3L251.5,231.4z M292.6,230.8l-0.8,1.6h-5.9l-0.1-0.4l-1.5-2.3l-2.7-1.1
		l-1.8,0.5l-1.9-1.5l-2.2-0.5l-3,0.8l-1.6,2l-13.5-0.6l2.6-10.7v-0.4l-1.5-5.9l-2.3-4.5l-2-8.5l1.5-0.1l21.1-1.9l2.6,6.2l-3.6,6.2
		l-1.5,6.2l1,1.2h0l0,0l16-0.8v2.8l0.3,0.7l1,1l-2.6,0.3l-1.5,0.7l-0.8,0.8l0.3,3.8l5.4,4.1L292.6,230.8z M301.3,219l-5.5,1.5
		l-0.5,0.1l-1.8-1.8v-3.4l-1-1l-15.7,0.7l1-4.5l3.8-6.5v-0.9l-2.8-7.1l0.6-2.8l0,0v-0.3l-0.7-5.7l2-4.5l3-5.5l0,0l2.8-4.1l3-0.5
		l14.1-2.3l1.4,0.9v33.7l2,13.3L301.3,219z M315.2,215.9l-4.4-1.3l-2.1,2.4l-1.8-12.1v-34.1l-0.4-0.8l-0.1-0.1l23.2-3.3l6.4,23.8
		l2.9,5.7l-2.8,4.7l-0.1,0.7l0,0.1l1.3,7.8l-22.8,2l-0.6,0.1v0h0l-0.7,1.6l2.3,3l0.6,0.6l-0.8,0.7L315.2,215.9z M385.4,238.3
		l3.4,5.5l1.3,10l-3,7.1l-1.4,0.5l-2-4l-1.8-1.3l-3.6-0.5l-2.6-10.3l-2.4-1.9h-1.8l-1.7-2.1v-3.6l-1.9-2.4l-0.9-0.2l0.5-3.9
		l-0.1-1.2l-2.2-5.9l-0.8-1.1l-5.9-4.5l-6.7-4.6h-2.8l-0.1,0l-0.1-0.1l-8.7,6.2l-3.5-3.5l-1.1-0.6l-5.2-1.5l-2.1,0.3l-3.5,2.3
		l-5.5-1.9l-1.4,0.3l-0.9-0.9l-1.2-1.5l22.3-1.9l1.2,1.2l0.7,0.3l24.4,0.7l1-0.8l0.7-4.4h2l0.2,1.1L385.4,238.3z M411.8,145.9
		l-0.2,0.3h-6.8l-1.8,4.2l1.9,2L402,154l-1.1,1.2l-3.4,7.8l-7.1,2.6l-1.3,1.1l-10.6,17.8l-4.3,1.2l-1.8,1.9l-0.7,3.1l-0.4-0.2v-1.7
		l-0.6-0.9l-2.4-1.2V185l-0.3-0.7l-8-8l-3.6-4.4l-1.5-3.7l-0.7-0.6l-3.6-0.5l0.6-5.1l-1.2-1.1l-8.5,1.8l1.2-2.5l10.7-8.4h2.7
		l0.9-0.6l2.8-6.2l47.5-10l0.1,0.2l2.2,4l-2.4,2.4l1.7,4.3H411.8z M409.4,121.3l-2-3.7l0.8,0.8h2.3v3.3L409.4,121.3z M413.5,106
		l-3.5-1.3l-0.9,1v-0.4h-0.6l-3.5-3.5l2.4-3l3.8-4.5l-0.4-1.5l-3.5-1.4l-1.7-2.9l3-4.3l4.9,0.8l2.7,0.5l-1.9,5v1.9l1.9,4.4
		L413.5,106z M420.1,78.4l-1-5.5l5.8-0.8l3.9-0.5l0.5,3.7L420.1,78.4z M431.1,73.9l-0.4-2.8l1.9-1l1.2,0.6L431.1,73.9z M436.3,69
		l-0.9,0.4l-2.3-1.2h-0.8l-2.9,1.4l-4.1,0.5l-6.4,0.8v-4.5h2.7l0.2,0l0,0l10.5-2.7l0.5,1L436.3,69z M449,34.2l-5.9,3l-1.1,1.1
		l-1.2,2.5l-7.6,5.6l-1,1.8l-0.2,1.6l-4-11.9l1.5-1.5l2.2-11.9v-0.8l-1.3-8.7l2.2-3l1.4,0.3l1.5-0.1l2.9-1.2l0.8,0.2l4.1,15l0.9,1.3
		L449,31V34.2z"/>
	<path d="M122.8,277.1l-9.7-12.2l-3.8,4.2l-1.2-1.6h0.7l-2.3-2.3v-1.7l-3.7-0.9l-0.4,0.4l2.2-43.6l-6.7-4.3l-0.8,0.6l-5-0.9
		l-5.9-2.9v-2.1l-3.3-0.5l-3.6-2.9l-2.1,0.5l-0.6,0.8l-1.3,0.1l-0.5-0.6l-3,0.6l-0.3,0.5l-1.2,0.2l-0.8-0.6l-6.1,5l-4.6-0.2h-1.6
		v0.5l-0.8,0.3l3,10l-4-0.6l-0.1,0.2l-7.5,0.8l4.1,11.3l8.1,1.1l-1.1,2.8l-2-1l-1.9,1l-1.9-1.3l-2.4,0.2l-1.3,1.3v0.1l-5.3,4.4
		l-0.6,4.5l0.9,0.9l-0.1,0.1l-5.4-1.7l-1.2,4l5.1,4.2l0.4-0.7l1-1.2l0.5,2v0.8H45v0.1h0.4l3.9,0.5l0.1,0.7l-1.3,0.5l0.3,1.5
		l-1.4,2.1l0.9,2.2h4.3l0.1,0.6l1.3,0.1v1l3.1,2.5l-0.7,1.3l-1.4,0.2l-0.8,1.3l-0.1-0.1l-5.3,2.3l-0.5-0.5l-1.3,0.2l-0.5-0.4
		l-4.4,0.8l-0.9,1.2l-7.9,0.9v3.1l2.3,2l8.4-0.8l3.7,1.3l2.8-1.2l-0.1-0.2l1.4,0.3l0.8-1.2l0.5,0.5l3.7-1.4v-1.1l6.7-3.5l0.2,4.3
		l2.8,1.4l5.2-2.3l0.2,0.1l2.2-1l-0.6-1.9l2-2h-0.8v-2.7l-0.4-0.2l0.1-0.7l3.4,0.6l4-2.7l0.2,0.1l0.9,0.5l0.1-0.1l2.7,1.3l3.2-4.2
		l-0.3-0.9l7.6,6.3v-1.7l6.5,0.9l-0.2,2.3h1.1l6.1,4.3l0.7,3.3l0.8,0.2l5.4,9.1l0.5-0.5l0.4,0.3l-0.3,0.2l1.6,3.1l0.8-0.1l2.4,4.4
		l1.3-2.1l3-0.5v-0.6l0.7,1.2l2.4-0.8l1.4-2.7l0.8-1.3L122.8,277.1L122.8,277.1z M46.7,276.3l-3.9,0.4l0.5-0.8l1.8-0.3l0.5,0.4
		l1.1-0.2l0.4,0.4L46.7,276.3z M53.3,274.7v0.9l-0.1-0.1h-1.5l0.2-0.8l1.3-0.6l0.5,0.4L53.3,274.7z M71.2,265.5l0.6-0.3l0.5,0.2
		l0.1,2l-0.5-0.2l-0.5-1.5L71.2,265.5z M69.7,272.8l-0.3,0.3l0.1,0.4l-0.2,0.7l-3.4,1.5v-1.7l3.3-1.6l0.2-0.2L69.7,272.8L69.7,272.8
		z M99.6,265.1l-5.1-0.7l-6.4-5.4l-4.7,0.5l-0.4,3.2l-0.8,0.5l-1.2-0.7l-3,2l-1.2-0.5l3.5-3.5l1.9-0.2l-1-4.5l-13.3,7.9l-0.5,2.9
		l0.7,0.4l-12.7,6.6l0.8-1.3l1.5-0.4l1.2-2.2H59l1.5-2.9l0.9-0.5l0.9-2.8l-3.7-0.1l-0.2-0.9h-2v-3.3l-1.8,1.8v-0.2H51l0.5-0.7
		l-0.1-0.3l1.6-0.7l-0.7-2.2v-11l-2.6,7.8l-2-0.3v-0.3h-0.4l-0.6-2.4l0.5-0.3l1.3-4.1h-1.6l0.2-1.6l5.4-4.5l0.2,0.1l0.1,1.2l1.8,0.6
		l2.5-1.3l2,1l2.4-1.2l1.8-5.3l-1.4-2.1l-8-1.1l-2.1-5.9l2.4-0.2l0.5,0.5h2l0.3-0.6l0.5,0.1l0.3,2l5.2,2.4l2.4-1.6l-1.3-2.9
		l-0.3-0.4l-0.2-0.8l0.3-0.3v-1.6l-1.7-1l-1.9-6.6l4.3,0.2l5.3-4.2l3.8-0.6l0.3-0.5L74,211l4.3-0.5l0.6-0.8l1.6,1.3l-0.4,1.7h2.6
		l0.7-0.4h0.1v1.5l10.9,5.4v-0.9l3.8,0.7l0.2-0.2l3.6,2.3L99.6,265.1z M105.1,268.6v-0.4l0.7,0.9L105.1,268.6z M127.6,288.3
		L127.6,288.3l-0.5-0.7L127.6,288.3z M122.7,285.8v2.2h-1.3l0.6-0.3l-4.7-3.9l-4.5-7.5l2.1-1l-4.7-3.2l0.4-0.1l2.4-2.7l8,10l5.8,7.8
		L122.7,285.8z"/>
	<polygon points="40.9,237.4 45.1,236.6 43.1,230.5 41.3,229.9 40.7,227.9 38.5,227.9 36.1,233 39.2,234.2 	"/>
	<polygon points="28.5,239.4 27.1,240.1 26.8,242.4 27,242.6 27,243.4 27.7,244.1 28.4,245.9 30.8,245.9 31.9,244.7 31.2,240 	"/>
	<polygon points="60.5,277.2 58.8,278.3 58.1,278.9 58.1,280.2 60.1,282.9 62.9,281.1 62.6,278.4 	"/>
	<polygon points="120.5,234.1 121.5,236.4 124.3,236.4 125.3,234.9 124.4,229.4 121.1,228.6 119.9,229.8 119.7,232.1 119.8,232.3 
		119.8,233.5 	"/>
	<polygon points="130,232.7 128.8,233.9 128.6,236.2 128.7,236.4 128.7,237.5 129.4,238.1 130.4,240.4 133.2,240.4 134.2,238.9 
		133.3,233.5 	"/>
	<polygon points="139.5,237.9 138.4,239.1 138.2,241.4 138.3,241.6 138.3,242.8 139,243.4 139.9,245.7 142.7,245.7 143.7,244.2 
		142.8,238.7 	"/>
	<path d="M149.5,244.1l-1.6,1.2l-0.5,3.8l0.3,0.3l0.1,2.5l1.5,1.5l1.8,4.3h4.1l1.5-1.6l-1.8-10.6L149.5,244.1z M153,254.6l-0.6-1.6
		l0.4-0.4l-2.1-2.1l-0.1-2.5l-0.1-0.1l0.1-0.6l1.5,0.4l1.1,6.8H153z"/>
</g>
</symbol><symbol id="icon-phone" viewBox="0 0 60 60">
<path id="phone" d="M58.9,47.8l-13-7.7c-0.7-0.3-1.7-0.2-2.2,0.4l-3.8,3.8c-0.5,0.5-1.6,1-2.4,1c0,0-4.9,0.1-13.9-9
	c-9-9-9-13.9-9-13.9c0-0.8,0.5-1.8,1-2.4l3.2-3.2c0.5-0.5,0.7-1.6,0.4-2.3L12.1,1.1c-0.3-0.7-1-0.8-1.6-0.3L1.7,9.7
	c-0.5,0.6-1.1,1.6-1.2,2.4c0,0-1.8,13,16.4,31s31,16.4,31,16.4c0.8-0.1,1.8-0.6,2.4-1.2l8.8-8.8C59.7,48.9,59.6,48.2,58.9,47.8"/>
</symbol><symbol id="icon-pin" viewBox="0 0 16 21">
<path id="location-globe" fill-rule="evenodd" clip-rule="evenodd" d="M6.1,8.2c0-1,0.8-1.9,1.9-1.9s1.9,0.8,1.9,1.9
	S9,10,8,10S6.1,9.2,6.1,8.2L6.1,8.2z M8,2.5c3.1,0,5.6,2.5,5.6,5.5c0,1.9-1.7,4.8-2.6,5.8l-3,3.7l-3-3.7C4.1,12.7,2.4,9.9,2.4,8
	C2.4,5,4.9,2.5,8,2.5L8,2.5z M7.3,20c0.2,0.2,0.4,0.4,0.7,0.4s0.6-0.1,0.7-0.4l3.7-4.7c1-1.2,3-4.6,3-7.2c0-4.1-3.4-7.5-7.5-7.5
	S0.5,4,0.5,8.2c0,3,2.7,6.7,3,7.1L7.3,20z"/>
</symbol><symbol id="icon-play-circled" viewBox="0 0 104 104">
<path d="M52,103C23.9,103,1,80.1,1,52S23.9,1,52,1s51,22.9,51,51S80.1,103,52,103z M52,5.5C26.4,5.5,5.5,26.4,5.5,52
	c0,25.6,20.9,46.5,46.5,46.5c25.6,0,46.5-20.9,46.5-46.5C98.5,26.4,77.6,5.5,52,5.5z"/>
<path id="Triangle" fill-rule="evenodd" clip-rule="evenodd" d="M68.4,54.9L42,71.5l0,0V33.3l26.4,16.6
	c1.4,0.9,1.8,2.7,0.9,4.1C69.1,54.3,68.8,54.7,68.4,54.9z"/>
</symbol><symbol id="icon-play" viewBox="0 0 40 60">
<polygon id="play" points="40,30 0,60 0,0 "/>
</symbol><symbol id="icon-quote" viewBox="0 0 36 33">
<path id="shape" fill-rule="evenodd" clip-rule="evenodd" d="M14.5,32.7H0.2V17.4c-0.1-2.2,0.2-4.3,1-6.2
	c0.7-1.9,1.7-3.6,2.9-5.1c1.3-1.5,2.8-2.7,4.6-3.6c1.8-1,3.7-1.6,5.8-1.9v6.6c-2.5,0.9-4.3,2.1-5.2,3.9c-0.9,1.7-1.4,3.8-1.4,6.2
	h6.6V32.7z M35.8,32.7H21.5V17.4c-0.1-2.2,0.2-4.3,1-6.2c0.7-1.9,1.7-3.6,3-5.1c1.3-1.5,2.8-2.7,4.5-3.6s3.7-1.6,5.8-1.9v6.6
	c-2.5,0.9-4.3,2.1-5.2,3.9c-0.9,1.7-1.4,3.8-1.4,6.2h6.6V32.7z"/>
</symbol><symbol id="icon-rain" viewBox="0 0 25 58">
<path d="M3.4,36.1c-0.4,0-0.8-0.2-1.1-0.5l-1.4-1.5C0.3,33.5,0.4,32.5,1,32c0.6-0.6,1.6-0.5,2.1,0.1l1.4,1.5
	c0.6,0.6,0.5,1.6-0.1,2.1C4.1,36,3.8,36.1,3.4,36.1z"/>
<path d="M19.2,49.9l-1.3-1.4c0-0.4-0.1-0.8-0.4-1.2L7.2,36c-0.6-0.6-1.5-0.7-2.1-0.1C4.5,36.5,4.4,37.4,5,38
	l10.2,11.2c0,0.4,0.1,0.8,0.4,1.2l1.4,1.5c0.3,0.3,0.7,0.5,1.1,0.5s0.7-0.1,1-0.4C19.7,51.5,19.7,50.5,19.2,49.9z"/>
<path d="M3.4,25.4c-0.4,0-0.8-0.2-1.1-0.5l-1.4-1.5c-0.6-0.6-0.5-1.6,0.1-2.1c0.6-0.6,1.6-0.5,2.1,0.1l1.4,1.5
	C5.1,23.5,5,24.5,4.4,25C4.1,25.3,3.8,25.4,3.4,25.4z"/>
<path d="M19.2,39.8l-1.3-1.4c0-0.4-0.1-0.8-0.4-1.2L7.2,25.9c-0.6-0.6-1.5-0.7-2.1-0.1S4.4,27.3,5,27.9l10.2,11.2
	c0,0.4,0.1,0.8,0.4,1.2l1.4,1.5c0.3,0.3,0.7,0.5,1.1,0.5s0.7-0.1,1-0.4C19.7,41.3,19.7,40.4,19.2,39.8z"/>
<path d="M3.4,15.5c-0.4,0-0.8-0.2-1.1-0.5l-1.4-1.5c-0.6-0.6-0.5-1.6,0.1-2.1c0.6-0.6,1.6-0.5,2.1,0.1L4.5,13
	c0.6,0.6,0.5,1.6-0.1,2.1C4.1,15.4,3.8,15.5,3.4,15.5z"/>
<path d="M19.2,29.6l-1.3-1.4c0-0.4-0.1-0.8-0.4-1.2L7.2,15.8c-0.6-0.6-1.5-0.7-2.1-0.1c-0.6,0.5-0.7,1.5-0.1,2.1
	L15.2,29c0,0.4,0.1,0.8,0.4,1.2l1.4,1.5c0.3,0.3,0.7,0.5,1.1,0.5s0.7-0.1,1-0.4C19.7,31.2,19.7,30.3,19.2,29.6z"/>
<path d="M3.4,4.8C3,4.8,2.6,4.7,2.3,4.3L0.9,2.8C0.3,2.2,0.4,1.3,1,0.7s1.5-0.5,2.1,0.1l1.4,1.5
	C5.1,2.9,5,3.9,4.4,4.4C4.1,4.7,3.8,4.8,3.4,4.8z"/>
<path d="M19.2,19.5l-1.3-1.4c0-0.4-0.1-0.8-0.4-1.2L7.2,5.6C6.6,5,5.7,5,5.1,5.5C4.5,6.1,4.4,7,5,7.7l10.2,11.1
	c0,0.4,0.1,0.8,0.4,1.2l1.4,1.5c0.3,0.3,0.7,0.5,1.1,0.5s0.7-0.1,1-0.4C19.7,21.1,19.7,20.1,19.2,19.5z"/>
<rect x="21.5" y="15" width="3" height="42.8"/>
</symbol><symbol id="icon-search" viewBox="0 0 20 20">
<path d="M8.7,15.6c-4.4,0-7.9-3.5-7.9-7.7s3.6-7.7,7.9-7.7s7.9,3.5,7.9,7.7S13.1,15.6,8.7,15.6z M8.7,2.2c-3.2,0-5.9,2.6-5.9,5.7
	s2.7,5.7,5.9,5.7s5.9-2.6,5.9-5.7S12,2.2,8.7,2.2z"/>
<rect x="15.5" y="14.2" transform="matrix(0.7423 -0.6701 0.6701 0.7423 -7.175 15.4847)" width="2" height="5.7"/>
</symbol><symbol id="icon-share-document" viewBox="0 0 22 22">
<polygon fill-rule="evenodd" clip-rule="evenodd" points="20.8,8.5 16.8,8.5 16.8,10.5 19,10.5 19,20.1 3,20.1 3,10.5 5.2,10.5 
	5.2,8.5 1.2,8.5 1.2,22 20.8,22 "/>
<path id="arrow-down" d="M11.9,3.8v12.8h-1.8V3.8L7.8,6.3L6.5,5.1L11,0.2L15.5,5l0,0l-1.3,1.2L11.9,3.8z"/>
</symbol><symbol id="icon-share" viewBox="0 0 22 22">
<polygon fill-rule="evenodd" clip-rule="evenodd" points="20.8,8.5 16.8,8.5 16.8,10.5 19,10.5 19,20.1 3,20.1 3,10.5 5.2,10.5 
	5.2,8.5 1.2,8.5 1.2,22 20.8,22 "/>
<path id="arrow-down" d="M11.9,3.8v12.8h-1.8V3.8L7.8,6.3L6.5,5.1L11,0.2L15.5,5l0,0l-1.3,1.2L11.9,3.8z"/>
</symbol><symbol id="icon-shear" viewBox="0 0 49 49">
<path d="M48.4,21.1L28.6,48.2c-0.2,0.3-0.5,0.3-0.8,0.3c-9.4-0.1-26.4,0-26.4,0s-0.4,0-0.8-0.3
	c-0.1-0.1-0.2-0.4-0.3-0.6C0.3,47.5,0.3,47,0.3,47v-3.4h1v2.2l20.1-25.9c0.2-0.2,0.5-0.4,0.8-0.4h25.4c0.4,0,0.7,0.2,0.9,0.5
	S48.6,20.8,48.4,21.1z M45.6,21.5h-23l-19.5,25h23.7v-2.8h1v2L45.6,21.5z"/>
<rect x="8.6" y="20" width="4" height="1"/>
<rect x="1.6" y="20" width="4" height="1"/>
<rect x="0.2" y="36.6" width="1" height="4"/>
<rect x="0.2" y="22.6" width="1" height="4"/>
<rect x="0.2" y="29.6" width="1" height="4"/>
<rect x="26.9" y="29.6" width="1" height="4"/>
<rect x="26.9" y="22.6" width="1" height="4"/>
<rect x="26.9" y="36.6" width="1" height="4"/>
<rect x="15.6" y="20" width="4" height="1"/>
<path d="M44.6,7.8c0,0,0-0.1,0-0.1c0,0,0-0.1,0-0.1c0,0,0-0.1,0-0.1s0-0.1,0-0.1c0,0,0-0.1,0-0.1c0,0,0-0.1,0-0.1
	c0-0.1,0-0.1-0.1-0.2c0,0,0-0.1,0-0.1c0,0,0,0,0,0c0,0,0,0-0.1-0.1c0,0-0.1-0.1-0.1-0.1c0,0,0,0-0.1-0.1l-9.1-6.3
	c-0.5-0.3-1.1-0.2-1.4,0.3c-0.3,0.5-0.2,1.1,0.3,1.4l6.5,4.5H1.3c-0.6,0-1,0.4-1,1c0,0.6,0.4,1,1,1h39.1l-6.5,4.5
	c-0.5,0.3-0.6,0.9-0.3,1.4c0.3,0.5,0.9,0.6,1.4,0.3l9.1-6.3c0,0,0,0,0.1-0.1c0,0,0.1-0.1,0.1-0.1c0,0,0,0,0.1-0.1c0,0,0,0,0,0
	c0,0,0-0.1,0-0.1C44.5,7.9,44.6,7.8,44.6,7.8z"/>
</symbol><symbol id="icon-triangle-down" viewBox="0 0 16 8.1">
<polygon points="8,8.1 0,0 16,0 "/>
</symbol><symbol id="icon-twitter" viewBox="0 0 34 34">
<path id="Path" d="M10.7,31c12.8,0,19.9-10.4,19.9-19.4c0-0.3,0-0.6,0-0.9c1.4-1,2.5-2.2,3.5-3.5
	c-1.3,0.5-2.6,0.9-4,1.1c1.4-0.8,2.5-2.2,3.1-3.8c-1.3,0.8-2.8,1.3-4.4,1.6C27.3,4.8,25.5,4,23.5,4c-3.9,0-7,3.1-7,6.8
	c0,0.5,0.1,1,0.2,1.6c-5.8-0.3-10.9-3-14.4-7.1c-0.6,1-0.9,2.2-0.9,3.4c0,2.4,1.2,4.5,3.1,5.7c-1.1,0-2.2-0.3-3.2-0.9
	c0,0,0,0.1,0,0.1c0,3.3,2.4,6.1,5.6,6.7c-0.6,0.2-1.2,0.2-1.8,0.2c-0.4,0-0.9,0-1.3-0.1c0.9,2.7,3.5,4.7,6.5,4.7
	c-2.4,1.8-5.4,2.9-8.7,2.9c-0.6,0-1.1,0-1.7-0.1C3.1,29.9,6.7,31,10.7,31"/>
</symbol><symbol id="icon-user" viewBox="0 0 18 18">
<path id="Shape" d="M9,1C5.6,1,2.6,2.9,1.2,5.8s-0.8,6.3,1.5,8.6c0.2,0.3,0.5,0.5,0.8,0.7c3.2,2.5,7.8,2.5,10.9,0
	c0.3-0.2,0.5-0.5,0.8-0.7c2.3-2.3,2.9-5.7,1.5-8.6C15.4,2.9,12.4,1,9,1z M9,16.1c-1.9,0-3.8-0.7-5.2-2c0.8-2,2.9-3.4,5.2-3.4
	s4.4,1.3,5.2,3.4C12.8,15.4,10.9,16.1,9,16.1z M6.6,7.7c0-1.2,1.1-2.2,2.4-2.2s2.4,1,2.4,2.2S10.3,9.9,9,9.9S6.6,8.9,6.6,7.7z
	 M14.9,13.4c-0.8-1.6-2.2-2.8-4-3.3c1.2-0.8,1.6-2.2,1.2-3.5C11.7,5.4,10.4,4.5,9,4.5S6.3,5.4,5.9,6.7C5.4,8,5.9,9.4,7,10.2
	c-1.7,0.5-3.2,1.7-4,3.3C0.6,10.5,1,6.3,3.9,3.8s7.4-2.5,10.3,0S17.4,10.5,14.9,13.4L14.9,13.4z"/>
</symbol><symbol id="icon-wind" viewBox="0 0 50 46">
<path d="M28.5,18.5H2c-0.8,0-1.5-0.7-1.5-1.5s0.7-1.5,1.5-1.5h26.5c1.6,0,3.1-1,3.7-2.5c0.6-1.5,0.3-3.2-0.9-4.4
	c-1.2-1.2-2.9-1.5-4.4-0.9c-1.5,0.6-2.5,2.1-2.5,3.7c0,0.8-0.7,1.5-1.5,1.5s-1.5-0.7-1.5-1.5c0-2.8,1.7-5.4,4.3-6.5
	c2.6-1.1,5.6-0.5,7.7,1.5c2,2,2.6,5,1.5,7.6C33.9,16.8,31.3,18.5,28.5,18.5z"/>
<path d="M33.5,41.5C33.5,41.5,33.5,41.5,33.5,41.5c-3.9,0-7-3.1-7-7c0-0.8,0.7-1.5,1.5-1.5s1.5,0.7,1.5,1.5
	c0,2.2,1.8,4,4,4c0,0,0,0,0,0c2.2,0,4-1.8,4-4c0-2.2-1.8-4-4-4H7c-0.8,0-1.5-0.7-1.5-1.5s0.7-1.5,1.5-1.5h26.5c3.9,0,7,3.1,7,7
	S37.3,41.5,33.5,41.5z"/>
<path d="M37.5,24.5H11c-0.8,0-1.5-0.7-1.5-1.5s0.7-1.5,1.5-1.5h26.5c2.2,0,4-1.8,4-4s-1.8-4-4-4
	c-0.8,0-1.5-0.7-1.5-1.5s0.7-1.5,1.5-1.5c3.9,0,7,3.1,7,7S41.3,24.5,37.5,24.5z"/>
<rect x="45.5" width="4" height="46"/>
</symbol><symbol id="icon-x" viewBox="0 0 24 24">
<polygon points="24,3.4 20.6,0 12,8.6 3.4,0 0,3.4 8.6,12 0,20.6 3.4,24 12,15.4 20.6,24 24,20.6 15.4,12 "/>
</symbol><symbol id="icon-youtube" viewBox="0 0 71 50">
<path id="YouTube" d="M28.2,35.6V14.4L46.8,25L28.2,35.6z M69.5,7.8c-0.8-3.1-3.2-5.5-6.3-6.3C57.7,0,35.5,0,35.5,0S13.3,0,7.8,1.5
	C4.7,2.3,2.3,4.7,1.5,7.8C0,13.4,0,25,0,25s0,11.6,1.5,17.2c0.8,3.1,3.2,5.5,6.3,6.3C13.3,50,35.5,50,35.5,50s22.2,0,27.7-1.5
	c3.1-0.8,5.5-3.2,6.3-6.3C71,36.6,71,25,71,25S71,13.4,69.5,7.8z"/>
</symbol></svg>