<?xml version="1.0" encoding="utf-8"?>
<!-- Generator: Adobe Illustrator 24.0.3, SVG Export Plug-In . SVG Version: 6.00 Build 0)  -->
<svg version="1.1" id="icon-map" xmlns="http://www.w3.org/2000/svg" xmlns:xlink="http://www.w3.org/1999/xlink" x="0px" y="0px"
	 width="455.8px" height="296.2px" viewBox="0 0 455.8 296.2" enable-background="new 0 0 455.8 296.2" xml:space="preserve">
<g>
	<path d="M452.9,27.7l-5.2-4l-4.3-15.6l-1.8-1.8l-3-0.8l-1.6,0.1l-3,1.2L432,6.4l-2.6,1l-3.8,5.2l-0.5,1.9l1.4,9.3l-1.8,9.7
		l-2.7,0.4l-2.1,2.5v2.8l-7.9,3.1l-17,4.5l-1.5,1.1l-4.5,6.9h-0.9l-2.2,3.6l2.1,4.1l-4.2,3.2l-2.8,1.6l-6.5-1.3l-1.7,0.3l-5.2,3
		l-1.3,2.2v3.7l-3.9,5.9l-4.6,4.6l-4.7,1.3l-1.8,2l-0.4,2.4l-7.2,2.6l-1-0.9l-2.8-0.8l4.5-13.9l-0.2-2.1l-4.5-7.4l-3.4-0.9l-0.5,0.3
		l0.4-0.9v-1.9l-3-7.4l-1.8-1.5l-7.4-1.5l-0.6,0.1l2.7-1.4l0.8-3.7l-2.3-3l-1.3-0.9l-8.1-2.2h-1.2l-8.9,2.2l-1.6,1.2l-1.3,2.2
		l-5.3-1.4v-1.1l-3.3-2.4l-3.4,1.2v-2.5l-3.9-2.1L275,49v-0.3l-3.4-2.8l-4.9,1.9l10.5-10.5l-1.8-4.3h-5.7l-0.8-0.8l-2.2-0.7
		l-7.6,1.3l-3.6-3.6l-1.3-0.7l-9.7-2l-1.7-5.3l-4.5-0.5l-1.6,2.6l-14.2,1.4l-47.8-1.5L90.4,10.9L89.5,10h-6.3L47.8,1.2l-3.1,2.3
		l-0.6,10.8L39,19l-0.8-1.4l3.3-7l-1.4-3.4l-9.6-3.7l-3.4,1.9l-3.8,21.5l0.7,2.2l0.7,0.7l-1.2,1L7.2,64.9l-1.6,5.6L1.9,86.9v0.9
		l0.7,5.1l-0.7,12.4l0.3,1.4l2.7,4.9l1.4,5.6l3.2,1.8l0.4-0.1v0.1l-1.2,0.9l-1,2v3.7l0.5,1.5l2.7,3.8L9,132.8l-0.3,2.6l9.6,20.8
		l1.9,1.4l4.2,0.6l3.2,4.4l1.1,0.9l9.2,3.6l5.7,4.5l3.5,14.1l2.3,1.9l21,0.6l1.1,0.6l-1,1.6l0.8,3.5l26,15.7l0.9,0.3l14.6,2.6h8.5
		l2-1l1.5-2l17.5,0.7l5.9,9.9l1.5,1.1l6.4,1.7l0.7,8.6l1,1.8l11.1,8.2l3.7-0.8l4.5-7.7h9.1l16.6,25.1v7.3l0.3,1.2l3.7,6.6l1.7,1.2
		l19.3,3.8l3.2-3.2l-2.8-6.9l0.6-15.5l11.2-9.9l6.6-0.6l2.1-1.6l1.5-4l1.7,0.3l1.4-0.2l4.7-2l15.8,0.7l2.6-2.5v-0.2l1.8,1.5l2.2,0.5
		l1.3-0.3l0.1,0.2v0.8l2.5,2.5h9.6l2.2-1.4l0.4-0.8l3.8,1.9l3-3.9l-5.2-5.9l-0.4-0.4l-1.8-1.4l1.3-0.2l5.5-1.5l7.1-0.8l1.6-0.9
		l0.1-0.1v0.3l4.1,1.6l4.2-3.6l5.4,1.8l2.2-0.3l3.5-2.4l3.5,1l4.7,4.7l3.2,0.3l9-6.4l5.2,3.5l5.4,4l1.7,4.7l-0.6,5.4l1.8,2.7
		l1.1,0.3v2.6l0.6,1.6l3,3.7l1.9,0.9h1l2.5,10l2,1.9l3.9,0.6l2.4,4.8l3,1.2l4.5-1.5l1.5-1.4l3.7-8.8l0.2-1.3l-1.5-11.2l-0.4-1
		l-3.7-5.9L373,207.6l3.5-15.5l0.5-2.2l3.8-1.1l1.5-1.1l10.6-17.8l7.3-2.7l1.4-1.4l3.5-8l5.9-3.4l-0.4-3.4h2.1l2-1.1l3.7-5.3l-2-3.9
		h-1.9l0.5-2.7l-2.9-5.1l-0.7-2l-1.6-1.1l0.2-0.2l-1.1-3.8l3.3,0.9l3.2-2.4v-10.4l-0.3-1.1l-0.9-1.8l3.3-1.6l3.8-12.6l-0.1-1.7
		l-1.9-4.3l1.9-5l1.1-3.4l9.9-3.4l1.1-0.7l4.5-5.1h3.4l1.8-0.7l1.5-1.5l0.7-1.8v-3.7l-4.3-1.8l-1.1,1.1h-0.1l-2.8-3.4l-0.7-6.4
		l0.7-6l7.2-5.3l0.8-0.9l1.1-2.3l6.6-3.3l1.4-2.2v-5.9L452.9,27.7z M425.1,41v-2.4l1.1-0.2l5.3,15.9l-0.1,1.1V56l0.6,5.8l-9.4,2.3
		V43.7l1-0.4L425.1,41z M420.6,44.4v20h-2l-2.1-5.4l-0.3-0.4l-2.6-1.9l-0.5-9.5l0.5-0.1L420.6,44.4z M371.5,77.3l0.4-1.4v-3.1
		L375,71l6.5,1.3l1.8-0.3l3.7-2.2l6.1-4.6l0.7-3.1l-1.6-3.1l0.7-0.4l4.7-7.3l13.6-3.6l0.5,9.5l0.4,0.7l2.8,2l2.1,5.6V72l0,0.2l0,0
		l1.4,7.7l-0.2,0.2l-1.1,3.4l-7.8-1.3l0,0h-1h-2.7v-2.8l-0.6-0.9l-3-1.5l-0.4-0.1h-2.2l-32.2,6.8L371.5,77.3z M410.5,116.4h-1.4
		l-0.8-5.7l2.2,4.4V116.4z M407.2,117.3L407,117l-4.7,1.5l0.3,2.5l-8-2.7l1.1-2.7l-0.3-1.2l-6.6-4.5l-0.5,0.1l-0.9-1l-8.9,0.8
		l-0.7,0.3l-4.6,5.2l-0.9-3.8l31.2-8.5l2.4,2.5l0.3,0.3l-0.6,0.6L407.2,117.3z M357.5,145.6l-1.9,4.4h-2.3l-0.6,0.2l-11.1,8.8
		l-0.3,0.3l-2,3.9l-9.1,1.4l0,0l-13.2,1.9l-13.4,1.9l-16.7,2.8v-2.5l0,0l1.4-7.5l4.3-5.7l50.6-6.6l0.1,0l0,0l5.5-1.3L357.5,145.6z
		 M349.5,168.9l4,0.6l1.3,3.3l3.9,4.8l7.8,7.8v1.9l0.6,0.9l2.4,1.2v1.6l0.5,0.8l1.4,0.9l-3,13.6h-3.1h0l-1,0.8l-0.7,4.4l-23.1-0.7
		l-0.9-0.9l-1.4-8.3l2.9-4.9v-0.9v0l-3-5.9l0-0.1l-6.2-23.3l8.5-1.3l8.9-1.9l-0.5,4.6L349.5,168.9z M254.3,197.3v-4.1l-1-1h-2.2
		l-0.4-1.4l0.7-10.2l-0.7-12.7l-1.3-8l33-3.5l1.2,1.6l-1.2,0.8l0,0.1l0,0l0.3,1.8l3.5,0.6l-1.3,7v0.1v3.6l-2.9,4.3l-3,5.2l-2.2,5.4
		l-0.1,0.5l0,0.1l0,0l0.7,5.7l-0.5,2.1l-21.5,1.9L254.3,197.3z M71.9,67.5l1.9-1.3l0.3-1.2l-1.9-4.7l7.6-8.3l0.2-1.1l-2.8-7.1
		l5.4-28.9h0.2h4.6l-1,5.8l-0.2,0l0.1,0.7v0.3l1.5,9.6l0.2,0.4l7.1,9.3L93,48.6l-1.4,2.2l-0.1,0.8l0.8,2.2l1.1,0.7l2.2-0.5l4.9,12.5
		l1.1,0.6l3.5-0.7l7.3,0.7l0.5-0.1l-1.4,12l-1.4,12l-21-3.6l0,0l0,0L89,87.3l-20.5-3.5L71.9,67.5L71.9,67.5z M222.7,30l0.7,1.4V35
		v0.3l2.2,6.5v4.3l0.8,3.9v7.7h-53.5l2-29.3l47.6,1.7L222.7,30z M306.7,78.3l4.1,7.5l-1.3,9.3l-2.2,1.7l-0.5,0.5l-1.2,1.6l-3.3-1
		l-1.4-0.7v-7.3l-1.5-11l3.6-12.1l-4.2-2.1l5.5-5.5l11.3-4.8l4.4,1.3l0.6-0.1l-4.6,2.1l-1.3,1.4l-0.9,2.4l-3.3,0.1l-3,4.5l-0.4,1.2
		l-0.8,9.6L306.7,78.3z M339.6,127.2l0.7,0.1l0,0l0.1,0l5.5-1.4l1.5,1l1.4,4.8l0.6,1.4l0.2,0.4l0.7,1.9l0.6,0.6l0,0l0.1,0.1l2.8,1
		l-11,9.8l-48.4,6.3l0.7-1l0.1-1l-1.1-2.7l4.1-1.1l0-0.1l0.1,0l0.4-1.7l2.8-2.2l0,0l0.1-0.1l0.4-0.8v-2.8l6.1-1.3l2.7,1.3l0.7,0.1
		l0,0l0.1,0l5.3-1.5l0.6-0.6l0,0l1.4-3.3h3.7h0.1l0.9-0.5l2.7-4.8l5-2.2l0.6-0.9v-1l2-1.5L339.6,127.2z M364.2,113.2l6.4-1.3
		l1.3,5.7l1.7,0.4l5.6-6.3l3.2-0.3l-0.7,0.2l-0.1,0.1l0,0l-4.9,6.1h-0.2l-0.9,0.5l0,0.1l-0.1,0l-3.7,5.9l-1.6,3.8l-1.3,3v0.1
		l-0.1,0.7l0.5,1.3l-9.8,4.6l-3.2-2l-0.2-0.1l0,0l-4.1-1.4l0-0.1l-0.4-1.8l-0.7-1.4l-1.3-4.4l2.3-1.1l0.4-0.3l5.1-7.3l3.7-3.6
		l0.3-0.7v-6.4l1.5,5.2l1.2,0.7L364.2,113.2L364.2,113.2z M382.8,111.3l3.5-0.3l-0.3,1.4L382.8,111.3z M172.6,59.6h54l0.5,2l0,0
		l-0.7,3.6l0.7,1.2l1.5,0.4v17.2l0,0l0,0.2l-0.1,0.1l0.7,3.8l-1.9,1.9l-0.1,1.2l-5.6-1.4l0,0h-3l-5-2.2l-0.4-0.1l-42-1.5V67.1
		L172.6,59.6z M270.5,84.2L270.5,84.2l-1.1,2.2v1l2.3,3.8l0.9,0.5h1.4l0.6,1.6l1.4,3l1.3,2l-2.6,6l-2.9,3.6l-2.4,5.5l-0.5,3
		l-0.7-0.9l0,0l-0.1-0.1l-0.9-0.4l-28.6,2.9v-1.9v-0.1l-0.1-0.4l-1.4-3.5v-3.6l-0.1-0.4l-3-6.5l-2.2-7.3l-0.1-0.2l0,0l-0.2-0.2
		l-0.1-0.1l0,0l-2-2.6l1.7-1.7l0.3-0.9l-0.6-3.4l37.7-2.1L270.5,84.2L270.5,84.2z M308.6,103.3l2-2.7l2.7-2.1l0-0.1l11.8-1.5l4.3,28
		h0v0.6l-4.7,2l-0.5,0.4l-2.6,4.6h-3.9l-0.9,0.6l-0.9,2.2l-0.5,1.1l-4.3,1.3l-2.7-1.3l-0.6-0.1l-4.9,1l3.7-5.3l0,0l0.1-1l-2.1-5.2
		l-2.6-23l3.8,1.1L308.6,103.3z M297.4,101l2.7,1.3l2.7,24l0,0.1l2.1,5.1l-4.9,6.9l-0.2,0.6v3.2l-3.3,2.6l0,0l-0.1,0.1l-0.1,0.9
		l-2.9,0.8l-1.2,0.3l-0.6,0.6l-0.4,0.9h-1.6l-0.9-1.9l1.3-3.4l-0.4-1.2l-0.2-0.1l0-0.1l-2.8-1.6l-0.6-0.4l-4-3.4l0.6-4.7l-1-1.1
		h-0.1l-0.1-0.1h-3.8l-6.2-8.2l-0.7-3.6l-0.1-0.1l0.7-4.6l2.2-5.1l2.9-3.6l3-6.8l-0.1-0.9l-1.4-2.3l-0.8-1.7l18.9-3.2v8.3L297.4,101
		z M183.2,150.6l0.1-4.4l0.7-22.6l45.2-0.2l12.2,0l1.5,1.3l-1.2,0.8l-0.2,1.5l4.9,5v18.6H183.2z M183,109.7l-13.8-0.7l2-20.9l42,1.5
		l5,2.2l0.4,0.1h2.9l5.7,1.4l3.2,1.9l2.1,7l3,6.5v3.6l0.1,0.4l1.4,3.5v2.8l0.3,0.7l0.1,0.1l0,0l0.3,0.3l1.7,1.5l-55.2,0.2v-10.9
		L183,109.7z M285.9,157.6L285.9,157.6l-2.3-3l-0.9-0.4l-33.6,3.6l-0.7-6.2l-0.1-0.1v-19.8l-0.3-0.7l0,0l-0.1-0.2l-4.1-4.2l1.2-0.8
		l0.1-1.6L245,124l0-0.1l-4.9-4.3l26.6-2.6l2,2.5l0.5,2.5l0.1,0.8l0.2,0.4l6.6,8.9l0.8,0.4h3.4l-0.1,0.5l-0.5,3.6l0.4,0.9l4.5,3.8
		l3.1,1.8l-1.2,3v0.8l1.5,3l0.9,0.6h3l0.5-0.3l0.6,1.3l-1.9,2.5l-4.1,5.5l-1.3-0.2l0.3-1.5L285.9,157.6z M89.7,89.6l20.2,3.4
		l-1.4,10.1l0.8,1.1l15.4,2.8l-6.4,38.2L81,139.6L89.7,89.6z M169.3,67.8v19l-2.1,22l-41.1-3.6l-15.5-2.8l1.4-10.2l3-26l1.2-3.6
		L169.3,67.8z M39.2,79.2l27.9,6.5l20.6,3.5l-8.7,51l0,0l-0.1,0.1l-0.6,10.2h-2.1h0l-0.9,0.5l-3.8,6.8L32,110.4L39.2,79.2z
		 M120.3,145.5l4.3-25.8l2.1-12.3L168,111l13.9,0.7v10.9l-0.7,27.9l-7-0.6L120.3,145.5z M227.2,188.8l-0.8,1.7l-4.2-4.9l-0.9-0.3
		l-3.7,0.7l-0.4-0.8l-0.7-0.6l-10.2-2.3l-5.8-3.5l-1.1-1.1l0.8-19.6l-0.9-1l-24.3-2.9V152l6.9,0.6l0.1,0l0,0h64.3l0.7,6.5l0,0l0,0.1
		l1.5,8.8l0.7,12.5l-0.7,10.3v0.2l-3.7-1.8l-0.5-0.1H240l-0.4,0.1l-4.9,2.5l-0.5-1.8l-0.8-0.7l-5.2-0.8L227.2,188.8z M359.1,143.1
		L359.1,143.1L359.1,143.1L359.1,143.1l-12.5,2.9l9.1-8.1l3,1.8l1,0.1l0,0h0l0,0l11.3-5.2l0.5-1.2l-0.6-1.8l2.8-6.3l3.4-5.5h0.1
		l0.8-0.4l4.9-6l3.8,1.3l1.3-0.8l0.1-0.4l0.7-1.4l5.1,3.4l-1.2,2.9l0.6,1.3l9.8,3.4l0.1,0.5l1.1,3.9l-3.3-0.7l-1.7,4.6l4.2,2.4
		L359.1,143.1z M361.6,89.6l3.2-3.2l34.7-7.4h1.9l2.2,1.1v3.2l1,1h0h1.7l-2.5,3.6l-0.1,1.1l2.2,3.8l0.5,0.4l2.5,1l-2.9,3.5l-2.7,3.4
		l-32.2,8.8l-6.5,1.3l-3.4-11.7l0,0l-1-9l0.5-0.1L361.6,89.6z M341,97.3l0.2,0.5l3.1,1.3l10.4-3.7l1.6-1.9l0.4-2.3l1.4-0.4l1,8.8
		v13.5l-3.5,3.4l-5.2,7.3l-2.2,1.1l-1.6-1.1l-0.8-0.1l-5.6,1.4l-6.3-3.5l-1.1,0.1l-1.7,1.2l-4-26.5l8.7-2.5l1.1,2.1L341,97.3z
		 M324.5,59.9l5.4,1.1l2.1,5.3l-0.9,2.3l-1.1,1.1l-0.7,1.8v2.3l3.7,2.2l4.6-2.6l2.7,4.4l-4.7,14.4l-9.8,2.8l0,0l-11.3,1.4l1.8-10.4
		l-0.3-1.5l-4.1-7.5l0.7-8.2l0.7-1l0.1,0.1l4.4-0.6l1.9-5L324.5,59.9z M269.6,52l2.1,2.5h3l1.4-0.4l9.4-6.3V49l3.3,2.4l3.7-1.3
		l1.6,2l8.9,2.3l2.8-1.2l1.7-2.9l7.2-1.8l6.6,1.8l-0.9,0.5l-4.2-1.2l-1.7,0.2L302,55l-0.8,0.5l-6.7,6.6l-0.7,1.8v8.2l2.4,0.8
		l-1.5,5.2l-0.1,1l1.3,9.5l-19.5,3.2l-0.6-1.3l-0.9-0.7h-1.6l-1.8-2.8l1.3-2.6l-0.3-1.2l-2.7-2l-1.4-3.6l0,0l-0.5-0.5l-4.3-2.1
		l-6.1-6.2l1.4-6.9l-0.4-1l-1.2-0.8l2.8-2.9l0.3-0.7v-5l0.1,0.5l3.7,1.5h1.9L269.6,52z M238.3,28.5l1.2-0.8l0.7,2l1.9,1.7l10.4,2.1
		l4,4l2.2,0.7l7.6-1.3l0.6,0.6l1.8,0.7h0.7l-9.8,9.8l0.1,0.5l-0.9,0.5l-0.5,0.9v6.2l-3.4,3.4l0.1,1.5l1.7,1.2l-1.4,6.7l0.3,0.9
		l6.6,6.7l0.3,0.2l4.1,2l0,0l0.9,2.2l-36.8,2V66.2l-0.7-1l0,0l-0.1-0.1l-1.3-0.4l0.5-2.8v-0.4l0,0v-0.1l-0.7-2.9v-8.7l-0.8-3.9v-4.4
		l-2.2-6.8v-3.6l-0.1-0.5l-0.5-0.9L238.3,28.5z M172.9,28.1l-2.1,30.5l0,0l-1.3,7.2l-53.9-5.2l0,0l-0.1,0l-1,0.7l-1.1,3.3l-0.8-0.1
		l0,0h0l-0.4,0.5l-7-0.7L102,65l-4.9-12.6L96,51.8l-2.2,0.5l-0.3-0.9l1.2-1.9l2.5-8.3L97,40.3l-7.3-9.5l-1.4-9.2l1-5.8L172.9,28.1z
		 M31.5,9.2l4.4,1.7l-2.7,5.9l0.1,2.3l3,5.2l3.8,0.6l8.2-7.4l0.8-1.7l0.5-8.8l31.1,7.8l-5.2,28.2l-5.9-0.9l-11.7-1.9h-0.2l-0.4,0
		l-0.1,0h-0.3l-13,0.7l-3.5-2.1L40,38.4l-6.5-0.5l0.6-1.5l-0.1-2L31.7,30l-0.5-0.7l-2.9-2.9L31.5,9.2z M27,34.8l0.6,1.1l-0.5,2.9
		l2.5,3h0.7l2.3-1.6l0.1-0.2l7,0.5l3.5,2.1l0.5,0.1l0.1,0l0,0l1.6-0.1L57,41.9l15.7,2.4l2.7,0.4l2.5,6.3l-7.6,8.3l-0.2,1.1L72,65
		l-1.6,1.1L70,66.7l-3.5,16.7l-27.9-6.5L38.5,77l-27.6-6.6l1-3.4L27,34.8z M48.2,169.5l-0.9-1.4l-6.6-5.3l-0.7-0.4l-8.9-3.4
		l-3.4-4.6l-1.6-1l-3.9-0.6l-8.4-18.2l2-2.5l0.1-3l-3.3-4.6V123l2-1.5l0.6-3.3l-2.2-3.7l-2.6-1L9.5,110l-0.2-0.6l-2.5-4.6L7.6,93
		l-0.7-5.3l3.5-15.4l26.8,6.5L30,110.4l0,0.1l0,0l0.2,0.8l40.6,48.8v5.6l0.3,0.7l2.3,2.3l-2.3,2.3l-0.3,0.4l-3,9.7l0.1,0.7l0.3,0.7
		l0.3,0.7l-17-0.5L48.2,169.5z M75.8,190.8l1-1.5l-0.8-3.5l-3.8-2.3l-1.3-0.4h-0.1l-0.2,0l-0.7-1.9l2.8-9.2l2.8-2.8v-1.4l-2.7-2.7
		V160l4.1-7.4h2.4l1-0.9l0.2-3.4l0.4-6.6l18.6,2.8l18.6,2.8l-6.3,59.5l-12.5-1.8L75.8,190.8z M123.6,204l-2.1,1l-1.5,2h-6.3
		l6.3-59.5l21.8,1.8l31.2,2.5v3.4l-2.7,48.9l-0.2,2.9l-25.2-1.3l-1.4-0.9L123.6,204z M251.5,231.4l-3.1-0.6l-2.8,1.6l-1.7,4.5
		l-5.9,0.6l-1.4,0.6l-12.6,11.2l-0.8,1.8l-0.7,17.1l0.2,1l1.3,3.2l-13.8-2.7l-3-5v-7.5l-0.4-1.4l-17.8-26.8l-2.1-1.1h-11.9l-2.2,1.2
		l-3.8,6.5l-7.9-5.9l-0.7-9.3l-1.8-2.2l-7.1-1.9l-5.1-8.5l24.3,1.3l1.1-0.9l2.9-51.7l23.2,2.7l0.1,0l-0.8,19.1l0.3,0.7l1.5,1.5
		l6.1,3.9l0.3,0.1l9.9,2.2l0.5,1l1.1,0.6l3.9-0.7l4.8,5.6l1.7-0.3l1.2-2.3l3.8,0.6l0.6,2.4l1.4,0.6l5.9-2.9h4l5.6,2.9l0.5,0.1l0,0h0
		h2v4.2l0,0l0,0.2l0,0l2.3,9.7l2.3,4.5l1.4,5.7l-2.7,11.3L251.5,231.4z M292.6,230.8l-0.8,1.6h-5.9l-0.1-0.4l-1.5-2.3l-2.7-1.1
		l-1.8,0.5l-1.9-1.5l-2.2-0.5l-3,0.8l-1.6,2l-13.5-0.6l2.6-10.7v-0.4l-1.5-5.9l-2.3-4.5l-2-8.5l1.5-0.1l21.1-1.9l2.6,6.2l-3.6,6.2
		l-1.5,6.2l1,1.2h0l0,0l16-0.8v2.8l0.3,0.7l1,1l-2.6,0.3l-1.5,0.7l-0.8,0.8l0.3,3.8l5.4,4.1L292.6,230.8z M301.3,219l-5.5,1.5
		l-0.5,0.1l-1.8-1.8v-3.4l-1-1l-15.7,0.7l1-4.5l3.8-6.5v-0.9l-2.8-7.1l0.6-2.8l0,0v-0.3l-0.7-5.7l2-4.5l3-5.5l0,0l2.8-4.1l3-0.5
		l14.1-2.3l1.4,0.9v33.7l2,13.3L301.3,219z M315.2,215.9l-4.4-1.3l-2.1,2.4l-1.8-12.1v-34.1l-0.4-0.8l-0.1-0.1l23.2-3.3l6.4,23.8
		l2.9,5.7l-2.8,4.7l-0.1,0.7l0,0.1l1.3,7.8l-22.8,2l-0.6,0.1v0h0l-0.7,1.6l2.3,3l0.6,0.6l-0.8,0.7L315.2,215.9z M385.4,238.3
		l3.4,5.5l1.3,10l-3,7.1l-1.4,0.5l-2-4l-1.8-1.3l-3.6-0.5l-2.6-10.3l-2.4-1.9h-1.8l-1.7-2.1v-3.6l-1.9-2.4l-0.9-0.2l0.5-3.9
		l-0.1-1.2l-2.2-5.9l-0.8-1.1l-5.9-4.5l-6.7-4.6h-2.8l-0.1,0l-0.1-0.1l-8.7,6.2l-3.5-3.5l-1.1-0.6l-5.2-1.5l-2.1,0.3l-3.5,2.3
		l-5.5-1.9l-1.4,0.3l-0.9-0.9l-1.2-1.5l22.3-1.9l1.2,1.2l0.7,0.3l24.4,0.7l1-0.8l0.7-4.4h2l0.2,1.1L385.4,238.3z M411.8,145.9
		l-0.2,0.3h-6.8l-1.8,4.2l1.9,2L402,154l-1.1,1.2l-3.4,7.8l-7.1,2.6l-1.3,1.1l-10.6,17.8l-4.3,1.2l-1.8,1.9l-0.7,3.1l-0.4-0.2v-1.7
		l-0.6-0.9l-2.4-1.2V185l-0.3-0.7l-8-8l-3.6-4.4l-1.5-3.7l-0.7-0.6l-3.6-0.5l0.6-5.1l-1.2-1.1l-8.5,1.8l1.2-2.5l10.7-8.4h2.7
		l0.9-0.6l2.8-6.2l47.5-10l0.1,0.2l2.2,4l-2.4,2.4l1.7,4.3H411.8z M409.4,121.3l-2-3.7l0.8,0.8h2.3v3.3L409.4,121.3z M413.5,106
		l-3.5-1.3l-0.9,1v-0.4h-0.6l-3.5-3.5l2.4-3l3.8-4.5l-0.4-1.5l-3.5-1.4l-1.7-2.9l3-4.3l4.9,0.8l2.7,0.5l-1.9,5v1.9l1.9,4.4
		L413.5,106z M420.1,78.4l-1-5.5l5.8-0.8l3.9-0.5l0.5,3.7L420.1,78.4z M431.1,73.9l-0.4-2.8l1.9-1l1.2,0.6L431.1,73.9z M436.3,69
		l-0.9,0.4l-2.3-1.2h-0.8l-2.9,1.4l-4.1,0.5l-6.4,0.8v-4.5h2.7l0.2,0l0,0l10.5-2.7l0.5,1L436.3,69z M449,34.2l-5.9,3l-1.1,1.1
		l-1.2,2.5l-7.6,5.6l-1,1.8l-0.2,1.6l-4-11.9l1.5-1.5l2.2-11.9v-0.8l-1.3-8.7l2.2-3l1.4,0.3l1.5-0.1l2.9-1.2l0.8,0.2l4.1,15l0.9,1.3
		L449,31V34.2z"/>
	<path d="M122.8,277.1l-9.7-12.2l-3.8,4.2l-1.2-1.6h0.7l-2.3-2.3v-1.7l-3.7-0.9l-0.4,0.4l2.2-43.6l-6.7-4.3l-0.8,0.6l-5-0.9
		l-5.9-2.9v-2.1l-3.3-0.5l-3.6-2.9l-2.1,0.5l-0.6,0.8l-1.3,0.1l-0.5-0.6l-3,0.6l-0.3,0.5l-1.2,0.2l-0.8-0.6l-6.1,5l-4.6-0.2h-1.6
		v0.5l-0.8,0.3l3,10l-4-0.6l-0.1,0.2l-7.5,0.8l4.1,11.3l8.1,1.1l-1.1,2.8l-2-1l-1.9,1l-1.9-1.3l-2.4,0.2l-1.3,1.3v0.1l-5.3,4.4
		l-0.6,4.5l0.9,0.9l-0.1,0.1l-5.4-1.7l-1.2,4l5.1,4.2l0.4-0.7l1-1.2l0.5,2v0.8H45v0.1h0.4l3.9,0.5l0.1,0.7l-1.3,0.5l0.3,1.5
		l-1.4,2.1l0.9,2.2h4.3l0.1,0.6l1.3,0.1v1l3.1,2.5l-0.7,1.3l-1.4,0.2l-0.8,1.3l-0.1-0.1l-5.3,2.3l-0.5-0.5l-1.3,0.2l-0.5-0.4
		l-4.4,0.8l-0.9,1.2l-7.9,0.9v3.1l2.3,2l8.4-0.8l3.7,1.3l2.8-1.2l-0.1-0.2l1.4,0.3l0.8-1.2l0.5,0.5l3.7-1.4v-1.1l6.7-3.5l0.2,4.3
		l2.8,1.4l5.2-2.3l0.2,0.1l2.2-1l-0.6-1.9l2-2h-0.8v-2.7l-0.4-0.2l0.1-0.7l3.4,0.6l4-2.7l0.2,0.1l0.9,0.5l0.1-0.1l2.7,1.3l3.2-4.2
		l-0.3-0.9l7.6,6.3v-1.7l6.5,0.9l-0.2,2.3h1.1l6.1,4.3l0.7,3.3l0.8,0.2l5.4,9.1l0.5-0.5l0.4,0.3l-0.3,0.2l1.6,3.1l0.8-0.1l2.4,4.4
		l1.3-2.1l3-0.5v-0.6l0.7,1.2l2.4-0.8l1.4-2.7l0.8-1.3L122.8,277.1L122.8,277.1z M46.7,276.3l-3.9,0.4l0.5-0.8l1.8-0.3l0.5,0.4
		l1.1-0.2l0.4,0.4L46.7,276.3z M53.3,274.7v0.9l-0.1-0.1h-1.5l0.2-0.8l1.3-0.6l0.5,0.4L53.3,274.7z M71.2,265.5l0.6-0.3l0.5,0.2
		l0.1,2l-0.5-0.2l-0.5-1.5L71.2,265.5z M69.7,272.8l-0.3,0.3l0.1,0.4l-0.2,0.7l-3.4,1.5v-1.7l3.3-1.6l0.2-0.2L69.7,272.8L69.7,272.8
		z M99.6,265.1l-5.1-0.7l-6.4-5.4l-4.7,0.5l-0.4,3.2l-0.8,0.5l-1.2-0.7l-3,2l-1.2-0.5l3.5-3.5l1.9-0.2l-1-4.5l-13.3,7.9l-0.5,2.9
		l0.7,0.4l-12.7,6.6l0.8-1.3l1.5-0.4l1.2-2.2H59l1.5-2.9l0.9-0.5l0.9-2.8l-3.7-0.1l-0.2-0.9h-2v-3.3l-1.8,1.8v-0.2H51l0.5-0.7
		l-0.1-0.3l1.6-0.7l-0.7-2.2v-11l-2.6,7.8l-2-0.3v-0.3h-0.4l-0.6-2.4l0.5-0.3l1.3-4.1h-1.6l0.2-1.6l5.4-4.5l0.2,0.1l0.1,1.2l1.8,0.6
		l2.5-1.3l2,1l2.4-1.2l1.8-5.3l-1.4-2.1l-8-1.1l-2.1-5.9l2.4-0.2l0.5,0.5h2l0.3-0.6l0.5,0.1l0.3,2l5.2,2.4l2.4-1.6l-1.3-2.9
		l-0.3-0.4l-0.2-0.8l0.3-0.3v-1.6l-1.7-1l-1.9-6.6l4.3,0.2l5.3-4.2l3.8-0.6l0.3-0.5L74,211l4.3-0.5l0.6-0.8l1.6,1.3l-0.4,1.7h2.6
		l0.7-0.4h0.1v1.5l10.9,5.4v-0.9l3.8,0.7l0.2-0.2l3.6,2.3L99.6,265.1z M105.1,268.6v-0.4l0.7,0.9L105.1,268.6z M127.6,288.3
		L127.6,288.3l-0.5-0.7L127.6,288.3z M122.7,285.8v2.2h-1.3l0.6-0.3l-4.7-3.9l-4.5-7.5l2.1-1l-4.7-3.2l0.4-0.1l2.4-2.7l8,10l5.8,7.8
		L122.7,285.8z"/>
	<polygon points="40.9,237.4 45.1,236.6 43.1,230.5 41.3,229.9 40.7,227.9 38.5,227.9 36.1,233 39.2,234.2 	"/>
	<polygon points="28.5,239.4 27.1,240.1 26.8,242.4 27,242.6 27,243.4 27.7,244.1 28.4,245.9 30.8,245.9 31.9,244.7 31.2,240 	"/>
	<polygon points="60.5,277.2 58.8,278.3 58.1,278.9 58.1,280.2 60.1,282.9 62.9,281.1 62.6,278.4 	"/>
	<polygon points="120.5,234.1 121.5,236.4 124.3,236.4 125.3,234.9 124.4,229.4 121.1,228.6 119.9,229.8 119.7,232.1 119.8,232.3 
		119.8,233.5 	"/>
	<polygon points="130,232.7 128.8,233.9 128.6,236.2 128.7,236.4 128.7,237.5 129.4,238.1 130.4,240.4 133.2,240.4 134.2,238.9 
		133.3,233.5 	"/>
	<polygon points="139.5,237.9 138.4,239.1 138.2,241.4 138.3,241.6 138.3,242.8 139,243.4 139.9,245.7 142.7,245.7 143.7,244.2 
		142.8,238.7 	"/>
	<path d="M149.5,244.1l-1.6,1.2l-0.5,3.8l0.3,0.3l0.1,2.5l1.5,1.5l1.8,4.3h4.1l1.5-1.6l-1.8-10.6L149.5,244.1z M153,254.6l-0.6-1.6
		l0.4-0.4l-2.1-2.1l-0.1-2.5l-0.1-0.1l0.1-0.6l1.5,0.4l1.1,6.8H153z"/>
</g>
</svg>
