<?xml version="1.0" encoding="utf-8"?>
<!-- Generator: Adobe Illustrator 24.0.3, SVG Export Plug-In . SVG Version: 6.00 Build 0)  -->
<svg version="1.1" id="icon-quote" xmlns="http://www.w3.org/2000/svg" xmlns:xlink="http://www.w3.org/1999/xlink" x="0px" y="0px"
	 width="36px" height="33px" viewBox="0 0 36 33" enable-background="new 0 0 36 33" xml:space="preserve">
<path id="shape" fill-rule="evenodd" clip-rule="evenodd" fill="#007836" d="M14.5,32.7H0.2V17.4c-0.1-2.2,0.2-4.3,1-6.2
	c0.7-1.9,1.7-3.6,2.9-5.1c1.3-1.5,2.8-2.7,4.6-3.6c1.8-1,3.7-1.6,5.8-1.9v6.6c-2.5,0.9-4.3,2.1-5.2,3.9c-0.9,1.7-1.4,3.8-1.4,6.2
	h6.6V32.7z M35.8,32.7H21.5V17.4c-0.1-2.2,0.2-4.3,1-6.2c0.7-1.9,1.7-3.6,3-5.1c1.3-1.5,2.8-2.7,4.5-3.6s3.7-1.6,5.8-1.9v6.6
	c-2.5,0.9-4.3,2.1-5.2,3.9c-0.9,1.7-1.4,3.8-1.4,6.2h6.6V32.7z"/>
</svg>
