<?xml version="1.0" encoding="utf-8"?>
<!-- Generator: Adobe Illustrator 23.0.6, SVG Export Plug-In . SVG Version: 6.00 Build 0)  -->
<svg version="1.1" id="icon-house" xmlns="http://www.w3.org/2000/svg" xmlns:xlink="http://www.w3.org/1999/xlink" x="0px" y="0px"
	 width="58px" height="56px" viewBox="0 0 58 56" enable-background="new 0 0 58 56" xml:space="preserve">
<path fill="#FFFFFF" d="M58,24.8L31,2l-2-1.7l0,0l0,0L0,24.8L2,27.1l3.8-3.2v31.9h46.5V23.9l3.8,3.2L58,24.8z M49.2,52.7H8.8v-31
	L29,4.2l20.2,17.5V52.7z"/>
<path fill="#FFFFFF" d="M37,29.8h-6.5V23c0-0.8-0.7-1.5-1.5-1.5s-1.5,0.7-1.5,1.5v6.8H21c-0.8,0-1.5,0.7-1.5,1.5s0.7,1.5,1.5,1.5
	h6.5V39c0,0.8,0.7,1.5,1.5,1.5s1.5-0.7,1.5-1.5v-6.2H37c0.8,0,1.5-0.7,1.5-1.5S37.8,29.8,37,29.8z"/>
</svg>
