<?xml version="1.0" encoding="utf-8"?>
<!-- Generator: Adobe Illustrator 24.0.3, SVG Export Plug-In . SVG Version: 6.00 Build 0)  -->
<svg version="1.1" id="icon-linkedin" xmlns="http://www.w3.org/2000/svg" xmlns:xlink="http://www.w3.org/1999/xlink" x="0px"
	 y="0px" width="28px" height="29px" viewBox="0 0 28 29" enable-background="new 0 0 28 29" xml:space="preserve">
<path id="Shape" fill="#FFFFFF" d="M21.9,0.2H6.1c-3.1,0-5.7,2.7-5.7,6v16.7c0,3.3,2.5,5.9,5.6,5.9h15.8c3.1,0,5.6-2.7,5.6-5.9V6.2
	C27.6,2.9,25,0.2,21.9,0.2z M9.5,22.8H6.1V9.7h3.4V22.8z M7.8,8.2c-1.1,0-2-0.9-2-2.1S6.7,4,7.8,4s2,0.9,2,2.1S8.9,8.2,7.8,8.2z
	 M23,22.8h-3.4v-6.7c0-4-4.5-3.7-4.5,0v6.7h-3.4V9.7h3.4v2.1c1.6-3.1,7.9-3.3,7.9,2.9V22.8z"/>
</svg>
