<?xml version="1.0" encoding="utf-8"?>
<!-- Generator: Adobe Illustrator 24.0.3, SVG Export Plug-In . SVG Version: 6.00 Build 0)  -->
<svg version="1.1" id="icon-phone" xmlns="http://www.w3.org/2000/svg" xmlns:xlink="http://www.w3.org/1999/xlink" x="0px" y="0px"
	 width="60px" height="60px" viewBox="0 0 60 60" enable-background="new 0 0 60 60" xml:space="preserve">
<path id="phone" d="M58.9,47.8l-13-7.7c-0.7-0.3-1.7-0.2-2.2,0.4l-3.8,3.8c-0.5,0.5-1.6,1-2.4,1c0,0-4.9,0.1-13.9-9
	c-9-9-9-13.9-9-13.9c0-0.8,0.5-1.8,1-2.4l3.2-3.2c0.5-0.5,0.7-1.6,0.4-2.3L12.1,1.1c-0.3-0.7-1-0.8-1.6-0.3L1.7,9.7
	c-0.5,0.6-1.1,1.6-1.2,2.4c0,0-1.8,13,16.4,31s31,16.4,31,16.4c0.8-0.1,1.8-0.6,2.4-1.2l8.8-8.8C59.7,48.9,59.6,48.2,58.9,47.8"/>
</svg>
