<?xml version="1.0" encoding="utf-8"?>
<!-- Generator: Adobe Illustrator 23.0.6, SVG Export Plug-In . SVG Version: 6.00 Build 0)  -->
<svg version="1.1" id="icon-play-circled" xmlns="http://www.w3.org/2000/svg" xmlns:xlink="http://www.w3.org/1999/xlink" x="0px"
	 y="0px" width="104px" height="104px" viewBox="0 0 104 104" enable-background="new 0 0 104 104" xml:space="preserve">
<path fill="#FFFFFF" d="M52,103C23.9,103,1,80.1,1,52S23.9,1,52,1s51,22.9,51,51S80.1,103,52,103z M52,5.5C26.4,5.5,5.5,26.4,5.5,52
	c0,25.6,20.9,46.5,46.5,46.5c25.6,0,46.5-20.9,46.5-46.5C98.5,26.4,77.6,5.5,52,5.5z"/>
<path id="Triangle" fill-rule="evenodd" clip-rule="evenodd" fill="#FFFFFF" d="M68.4,54.9L42,71.5l0,0V33.3l26.4,16.6
	c1.4,0.9,1.8,2.7,0.9,4.1C69.1,54.3,68.8,54.7,68.4,54.9z"/>
</svg>
