<?xml version="1.0" encoding="utf-8"?>
<!-- Generator: Adobe Illustrator 24.0.3, SVG Export Plug-In . SVG Version: 6.00 Build 0)  -->
<svg version="1.1" id="icon-calendar" xmlns="http://www.w3.org/2000/svg" xmlns:xlink="http://www.w3.org/1999/xlink" x="0px"
	 y="0px" width="63px" height="67px" viewBox="0 0 63 67" enable-background="new 0 0 63 67" xml:space="preserve">
<path id="Shape" d="M16.4,6.7h10.2V4.8c0-2.7,2.3-4.8,4.9-4.8s4.8,2.1,4.8,4.8v1.9h10.4V4.8c0-2.7,2.1-4.8,4.8-4.8
	c2.6,0,4.8,2.1,4.8,4.8v1.9c3.9,0,6.7,3.2,6.7,6.9v46.5c0,3.7-3,6.9-6.7,6.9H6.9C3,67,0,63.8,0,60.1V13.6c0-3.7,3-6.9,6.7-6.9V4.8
	C6.7,2.1,8.8,0,11.5,0s4.9,2.1,4.9,4.8V6.7z M26.6,9.7H16.4v1.8c0,2.7-2.3,4.9-4.9,4.9s-4.8-2.3-4.8-4.9V9.7C4.6,9.7,3,11.5,3,13.6
	V20h57v-6.4c0-2.1-1.6-3.9-3.7-3.9v1.8c0,2.7-2.1,4.9-4.8,4.9c-2.6,0-4.8-2.3-4.8-4.9V9.7H36.4v1.8c0,2.7-2.1,4.9-4.8,4.9
	s-4.9-2.3-4.9-4.9V9.7z M60,23H3v37.1c0,2.1,1.6,4.1,3.9,4.1h49.4c2.1,0,3.7-1.9,3.7-4.1V23z M51.5,3c-1.1,0-1.8,0.9-1.8,1.8v6.7
	c0,1.1,0.7,1.9,1.8,1.9s1.9-0.9,1.9-1.9V4.8C53.5,3.9,52.6,3,51.5,3z M31.6,3c-1.1,0-1.9,0.9-1.9,1.8v6.7c0,1.1,0.9,1.9,1.9,1.9
	c0.9,0,1.8-0.9,1.8-1.9V4.8C33.4,3.9,32.5,3,31.6,3z M11.5,3c-1.1,0-1.8,0.9-1.8,1.8v6.7c0,1.1,0.7,1.9,1.8,1.9
	c1.1,0,1.9-0.9,1.9-1.9V4.8C13.4,3.9,12.5,3,11.5,3z"/>
<path id="Path" d="M21.2,42.6c-0.5-0.5-0.5-1.4,0-2.1c0.5-0.5,1.6-0.5,2.1,0l5.1,5.1l11.3-11.3c0.5-0.5,1.6-0.5,2.1,0
	c0.5,0.7,0.5,1.6,0,2.1L29.5,48.8c-0.5,0.7-1.6,0.7-2.1,0L21.2,42.6z"/>
</svg>
