<?xml version="1.0" encoding="utf-8"?>
<!-- Generator: Adobe Illustrator 24.0.3, SVG Export Plug-In . SVG Version: 6.00 Build 0)  -->
<svg version="1.1" id="icon-email" xmlns="http://www.w3.org/2000/svg" xmlns:xlink="http://www.w3.org/1999/xlink" x="0px" y="0px"
	 width="48px" height="48px" viewBox="0 0 48 48" enable-background="new 0 0 48 48" xml:space="preserve">
<path id="Shape" d="M47.8,16.7l-7.5-4.9V7H33l-8.9-5.9L15.2,7H7.9v4.8l-7.5,4.9H0.2v30.2h47.7L47.8,16.7L47.8,16.7z M46.1,45.1h-0.3
	L25.7,31.8l9.7-6.3L46,18.4h0.1V45.1L46.1,45.1z M6,19h1.9v1.2L6,19z M24.1,30.8L24.1,30.8L24.1,30.8L13.7,24H34L24.1,30.8z
	 M24,32.9L24,32.9L24,32.9L42,44.7H6L24,32.9z M40.1,20.2V19H42L40.1,20.2z M42,15.1h-1.9v-1.2L42,15.1z M24.1,3.2L29.8,7H18.3
	L24.1,3.2z M9.6,8.7h28.8v12.6l-4,2.4v-1.5H13.2v1.5l-3.6-2.4V8.7H9.6z M7.9,13.8V15H6L7.9,13.8z M22.5,31.8L2.2,45.1H2V18.4
	L22.5,31.8z"/>
<rect id="Rectangle" x="13.2" y="12.1" width="21.2" height="1.7"/>
<rect x="13.2" y="17.2" width="21.2" height="1.7"/>
</svg>
