<?xml version="1.0" encoding="utf-8"?>
<!-- Generator: Adobe Illustrator 24.0.3, SVG Export Plug-In . SVG Version: 6.00 Build 0)  -->
<svg version="1.1" id="icon-clipboard" xmlns="http://www.w3.org/2000/svg" xmlns:xlink="http://www.w3.org/1999/xlink" x="0px"
	 y="0px" width="38px" height="53.1px" viewBox="0 0 38 53.1" enable-background="new 0 0 38 53.1" xml:space="preserve">
<path fill="#5D9C43" d="M37,53.1H1c-0.6,0-1-0.4-1-1V4.8c0-0.6,0.4-1,1-1h7.6c0.6,0,1,0.4,1,1s-0.4,1-1,1H2V51h34V5.8h-6.7
	c-0.6,0-1-0.4-1-1s0.4-1,1-1H37c0.6,0,1,0.4,1,1V52C38,52.6,37.6,53.1,37,53.1z"/>
<polygon fill="#5D9C43" points="21.8,2.2 21.8,0 16.2,0 16.2,2.2 11.9,2.2 11.9,6.2 26.1,6.2 26.1,2.2 "/>
<g>
	<rect x="8.5" y="32.1" fill="#5D9C43" width="21.1" height="2"/>
	<rect x="8.5" y="41.1" fill="#5D9C43" width="21.1" height="2"/>
</g>
<g>
	<rect x="11.5" y="16.8" fill="#5D9C43" width="2" height="6.8"/>
	<rect x="20.1" y="18.1" fill="#5D9C43" width="2" height="5.5"/>
	<rect x="16.1" y="11.1" fill="#5D9C43" width="2" height="12.6"/>
	<rect x="24.5" y="13.3" fill="#5D9C43" width="2" height="10.3"/>
</g>
</svg>
