<?xml version="1.0" encoding="utf-8"?>
<!-- Generator: Adobe Illustrator 24.0.3, SVG Export Plug-In . SVG Version: 6.00 Build 0)  -->
<svg version="1.1" id="icon-youtube" xmlns="http://www.w3.org/2000/svg" xmlns:xlink="http://www.w3.org/1999/xlink" x="0px"
	 y="0px" width="71px" height="50px" viewBox="0 0 71 50" enable-background="new 0 0 71 50" xml:space="preserve">
<path id="YouTube" d="M28.2,35.6V14.4L46.8,25L28.2,35.6z M69.5,7.8c-0.8-3.1-3.2-5.5-6.3-6.3C57.7,0,35.5,0,35.5,0S13.3,0,7.8,1.5
	C4.7,2.3,2.3,4.7,1.5,7.8C0,13.4,0,25,0,25s0,11.6,1.5,17.2c0.8,3.1,3.2,5.5,6.3,6.3C13.3,50,35.5,50,35.5,50s22.2,0,27.7-1.5
	c3.1-0.8,5.5-3.2,6.3-6.3C71,36.6,71,25,71,25S71,13.4,69.5,7.8z"/>
</svg>
