<?xml version="1.0" encoding="utf-8"?>
<!-- Generator: Adobe Illustrator 23.0.6, SVG Export Plug-In . SVG Version: 6.00 Build 0)  -->
<svg version="1.1" id="icon-wind" xmlns="http://www.w3.org/2000/svg" xmlns:xlink="http://www.w3.org/1999/xlink" x="0px" y="0px"
	 width="50px" height="46px" viewBox="0 0 50 46" enable-background="new 0 0 50 46" xml:space="preserve">
<path fill="#FFFFFF" d="M28.5,18.5H2c-0.8,0-1.5-0.7-1.5-1.5s0.7-1.5,1.5-1.5h26.5c1.6,0,3.1-1,3.7-2.5c0.6-1.5,0.3-3.2-0.9-4.4
	c-1.2-1.2-2.9-1.5-4.4-0.9c-1.5,0.6-2.5,2.1-2.5,3.7c0,0.8-0.7,1.5-1.5,1.5s-1.5-0.7-1.5-1.5c0-2.8,1.7-5.4,4.3-6.5
	c2.6-1.1,5.6-0.5,7.7,1.5c2,2,2.6,5,1.5,7.6C33.9,16.8,31.3,18.5,28.5,18.5z"/>
<path fill="#FFFFFF" d="M33.5,41.5C33.5,41.5,33.5,41.5,33.5,41.5c-3.9,0-7-3.1-7-7c0-0.8,0.7-1.5,1.5-1.5s1.5,0.7,1.5,1.5
	c0,2.2,1.8,4,4,4c0,0,0,0,0,0c2.2,0,4-1.8,4-4c0-2.2-1.8-4-4-4H7c-0.8,0-1.5-0.7-1.5-1.5s0.7-1.5,1.5-1.5h26.5c3.9,0,7,3.1,7,7
	S37.3,41.5,33.5,41.5z"/>
<path fill="#FFFFFF" d="M37.5,24.5H11c-0.8,0-1.5-0.7-1.5-1.5s0.7-1.5,1.5-1.5h26.5c2.2,0,4-1.8,4-4s-1.8-4-4-4
	c-0.8,0-1.5-0.7-1.5-1.5s0.7-1.5,1.5-1.5c3.9,0,7,3.1,7,7S41.3,24.5,37.5,24.5z"/>
<rect x="45.5" fill="#FFFFFF" width="4" height="46"/>
</svg>
