<?xml version="1.0" encoding="utf-8"?>
<!-- Generator: Adobe Illustrator 23.0.4, SVG Export Plug-In . SVG Version: 6.00 Build 0)  -->
<svg version="1.1" id="icon-user" xmlns="http://www.w3.org/2000/svg" xmlns:xlink="http://www.w3.org/1999/xlink" x="0px" y="0px"
	 width="18px" height="18px" viewBox="0 0 18 18" enable-background="new 0 0 18 18" xml:space="preserve">
<path id="Shape" fill="#FFFFFF" d="M9,1C5.6,1,2.6,2.9,1.2,5.8s-0.8,6.3,1.5,8.6c0.2,0.3,0.5,0.5,0.8,0.7c3.2,2.5,7.8,2.5,10.9,0
	c0.3-0.2,0.5-0.5,0.8-0.7c2.3-2.3,2.9-5.7,1.5-8.6C15.4,2.9,12.4,1,9,1z M9,16.1c-1.9,0-3.8-0.7-5.2-2c0.8-2,2.9-3.4,5.2-3.4
	s4.4,1.3,5.2,3.4C12.8,15.4,10.9,16.1,9,16.1z M6.6,7.7c0-1.2,1.1-2.2,2.4-2.2s2.4,1,2.4,2.2S10.3,9.9,9,9.9S6.6,8.9,6.6,7.7z
	 M14.9,13.4c-0.8-1.6-2.2-2.8-4-3.3c1.2-0.8,1.6-2.2,1.2-3.5C11.7,5.4,10.4,4.5,9,4.5S6.3,5.4,5.9,6.7C5.4,8,5.9,9.4,7,10.2
	c-1.7,0.5-3.2,1.7-4,3.3C0.6,10.5,1,6.3,3.9,3.8s7.4-2.5,10.3,0S17.4,10.5,14.9,13.4L14.9,13.4z"/>
</svg>
